<svg width="14" height="14" viewBox="0 0 14 14" fill="none" xmlns="http://www.w3.org/2000/svg">
<path d="M12.122 7.30978L8.18453 11.2473C8.10244 11.3294 7.9911 11.3755 7.875 11.3755C7.7589 11.3755 7.64756 11.3294 7.56547 11.2473C7.48338 11.1652 7.43726 11.0538 7.43726 10.9377C7.43726 10.8216 7.48338 10.7103 7.56547 10.6282L10.7565 7.43774H2.1875C2.07147 7.43774 1.96019 7.39165 1.87814 7.3096C1.79609 7.22756 1.75 7.11628 1.75 7.00024C1.75 6.88421 1.79609 6.77293 1.87814 6.69088C1.96019 6.60884 2.07147 6.56274 2.1875 6.56274H10.7565L7.56547 3.37227C7.48338 3.29018 7.43726 3.17884 7.43726 3.06274C7.43726 2.94665 7.48338 2.8353 7.56547 2.75321C7.64756 2.67112 7.7589 2.625 7.875 2.625C7.9911 2.625 8.10244 2.67112 8.18453 2.75321L12.122 6.69071C12.1627 6.73134 12.195 6.7796 12.217 6.83271C12.239 6.88582 12.2503 6.94275 12.2503 7.00024C12.2503 7.05774 12.239 7.11467 12.217 7.16778C12.195 7.22089 12.1627 7.26914 12.122 7.30978Z" fill="black"/>
</svg>
