<svg width="24" height="24" viewBox="0 0 24 24" fill="none" xmlns="http://www.w3.org/2000/svg">
<path d="M21.3113 6.87821L17.1216 2.68946C16.9823 2.55014 16.8169 2.43962 16.6349 2.36421C16.4529 2.28881 16.2578 2.25 16.0608 2.25C15.8638 2.25 15.6687 2.28881 15.4867 2.36421C15.3047 2.43962 15.1393 2.55014 15 2.68946L3.4397 14.2498C3.2998 14.3886 3.18889 14.5538 3.11341 14.7358C3.03792 14.9178 2.99938 15.113 3.00001 15.3101V19.4998C3.00001 19.8976 3.15804 20.2791 3.43935 20.5604C3.72065 20.8417 4.10218 20.9998 4.50001 20.9998H8.6897C8.88675 21.0004 9.08197 20.9619 9.26399 20.8864C9.44602 20.8109 9.61123 20.7 9.75001 20.5601L17.5941 12.717L17.9203 14.0201L14.4703 17.4692C14.3296 17.6098 14.2505 17.8005 14.2504 17.9994C14.2503 18.1984 14.3292 18.3892 14.4699 18.5299C14.6105 18.6707 14.8012 18.7498 15.0001 18.7499C15.1991 18.75 15.3899 18.671 15.5306 18.5304L19.2806 14.7804C19.3724 14.6888 19.4388 14.5751 19.4735 14.4502C19.5081 14.3254 19.5098 14.1936 19.4784 14.0679L18.8316 11.4795L21.3113 8.99977C21.4506 8.86048 21.5611 8.69511 21.6365 8.5131C21.7119 8.33109 21.7507 8.136 21.7507 7.93899C21.7507 7.74198 21.7119 7.5469 21.6365 7.36489C21.5611 7.18288 21.4506 7.0175 21.3113 6.87821ZM4.50001 16.8101L7.1897 19.4998H4.50001V16.8101ZM9.00001 19.1895L4.81032 14.9998L12.75 7.06009L16.9397 11.2498L9.00001 19.1895ZM18 10.1895L13.8113 5.99977L16.0613 3.74977L20.25 7.93946L18 10.1895Z" fill="white"/>
</svg>
