<svg width="20" height="20" viewBox="0 0 20 20" fill="none" xmlns="http://www.w3.org/2000/svg">
<path d="M13.7498 12.1877C12.9126 12.1864 12.104 12.4921 11.4771 13.0471L8.28885 11.0002C8.48674 10.3482 8.48674 9.6522 8.28885 9.00022L11.4771 6.95334C12.0977 7.49873 12.8946 7.80136 13.7207 7.80543C14.5469 7.80949 15.3467 7.51472 15.9726 6.97547C16.5985 6.43621 17.0084 5.68884 17.1266 4.87116C17.2448 4.05348 17.0634 3.22063 16.6158 2.52619C16.1682 1.83175 15.4846 1.32255 14.6911 1.09248C13.8976 0.862413 13.0477 0.92699 12.2981 1.27431C11.5484 1.62162 10.9497 2.22825 10.6121 2.98234C10.2746 3.73643 10.2211 4.58713 10.4615 5.37756L7.27244 7.42209C6.77651 6.98382 6.1646 6.69802 5.51021 6.59904C4.85581 6.50005 4.18676 6.59208 3.58339 6.86408C2.98002 7.13607 2.46801 7.57647 2.10883 8.13237C1.74965 8.68827 1.55859 9.33604 1.55859 9.99788C1.55859 10.6597 1.74965 11.3075 2.10883 11.8634C2.46801 12.4193 2.98002 12.8597 3.58339 13.1317C4.18676 13.4037 4.85581 13.4957 5.51021 13.3967C6.1646 13.2977 6.77651 13.0119 7.27244 12.5737L10.4607 14.6252C10.2504 15.3171 10.2635 16.0577 10.4984 16.7416C10.7332 17.4255 11.1778 18.018 11.7688 18.4347C12.3598 18.8513 13.0672 19.071 13.7902 19.0625C14.5133 19.0539 15.2153 18.8175 15.7963 18.387C16.3773 17.9564 16.8077 17.3536 17.0262 16.6643C17.2448 15.975 17.2405 15.2343 17.0138 14.5476C16.7871 13.861 16.3496 13.2632 15.7636 12.8396C15.1776 12.4159 14.4729 12.1878 13.7498 12.1877ZM13.7498 2.81272C14.0588 2.81272 14.3609 2.90436 14.6179 3.07605C14.8748 3.24774 15.0751 3.49177 15.1933 3.77728C15.3116 4.06279 15.3425 4.37695 15.2823 4.68005C15.222 4.98314 15.0732 5.26155 14.8546 5.48007C14.6361 5.69859 14.3577 5.84741 14.0546 5.9077C13.7515 5.96799 13.4373 5.93704 13.1518 5.81878C12.8663 5.70052 12.6223 5.50025 12.4506 5.2433C12.2789 4.98635 12.1873 4.68425 12.1873 4.37522C12.1873 3.96082 12.3519 3.56339 12.6449 3.27037C12.938 2.97734 13.3354 2.81272 13.7498 2.81272ZM4.99978 11.5627C4.69075 11.5627 4.38866 11.4711 4.13171 11.2994C3.87475 11.1277 3.67448 10.8837 3.55622 10.5982C3.43796 10.3127 3.40702 9.99849 3.46731 9.69539C3.5276 9.39229 3.67641 9.11388 3.89493 8.89536C4.11345 8.67685 4.39186 8.52803 4.69496 8.46774C4.99805 8.40745 5.31222 8.4384 5.59773 8.55666C5.88324 8.67492 6.12727 8.87519 6.29896 9.13214C6.47065 9.38909 6.56228 9.69119 6.56228 10.0002C6.56228 10.4146 6.39766 10.812 6.10464 11.1051C5.81161 11.3981 5.41419 11.5627 4.99978 11.5627ZM13.7498 17.1877C13.4408 17.1877 13.1387 17.0961 12.8817 16.9244C12.6248 16.7527 12.4245 16.5087 12.3062 16.2232C12.188 15.9377 12.157 15.6235 12.2173 15.3204C12.2776 15.0173 12.4264 14.7389 12.6449 14.5204C12.8634 14.3018 13.1419 14.153 13.445 14.0927C13.748 14.0325 14.0622 14.0634 14.3477 14.1817C14.6332 14.2999 14.8773 14.5002 15.049 14.7571C15.2206 15.0141 15.3123 15.3162 15.3123 15.6252C15.3123 16.0396 15.1477 16.437 14.8546 16.7301C14.5616 17.0231 14.1642 17.1877 13.7498 17.1877Z" fill="white" fill-opacity="0.48"/>
</svg>
