<svg width="32" height="32" viewBox="0 0 32 32" fill="none" xmlns="http://www.w3.org/2000/svg">
<path d="M13.9375 15.9992L19.3683 21.43C19.5529 21.6146 19.6473 21.8467 19.6516 22.1262C19.6559 22.4056 19.5615 22.6419 19.3683 22.8351C19.1751 23.0283 18.9409 23.1249 18.6657 23.1249C18.3905 23.1249 18.1564 23.0283 17.9632 22.8351L11.9709 16.8428C11.8461 16.718 11.7581 16.5864 11.7068 16.4479C11.6555 16.3095 11.6299 16.1599 11.6299 15.9992C11.6299 15.8385 11.6555 15.689 11.7068 15.5505C11.7581 15.4121 11.8461 15.2804 11.9709 15.1557L17.9632 9.16336C18.1478 8.97873 18.3799 8.88429 18.6593 8.88002C18.9388 8.87573 19.1751 8.97018 19.3683 9.16336C19.5615 9.35651 19.658 9.59069 19.658 9.86589C19.658 10.1411 19.5615 10.3753 19.3683 10.5684L13.9375 15.9992Z" fill="black" fill-opacity="0.64"/>
</svg>
