<svg width="14" height="14" viewBox="0 0 14 14" fill="none" xmlns="http://www.w3.org/2000/svg">
<path d="M11.8125 2.1875H3.9375C3.70544 2.1875 3.48288 2.27969 3.31878 2.44378C3.15469 2.60788 3.0625 2.83044 3.0625 3.0625V3.9375H2.1875C1.95544 3.9375 1.73288 4.02969 1.56878 4.19378C1.40469 4.35788 1.3125 4.58044 1.3125 4.8125V10.9375C1.3125 11.1696 1.40469 11.3921 1.56878 11.5562C1.73288 11.7203 1.95544 11.8125 2.1875 11.8125H10.0625C10.2946 11.8125 10.5171 11.7203 10.6812 11.5562C10.8453 11.3921 10.9375 11.1696 10.9375 10.9375V10.0625H11.8125C12.0446 10.0625 12.2671 9.97031 12.4312 9.80622C12.5953 9.64212 12.6875 9.41956 12.6875 9.1875V3.0625C12.6875 2.83044 12.5953 2.60788 12.4312 2.44378C12.2671 2.27969 12.0446 2.1875 11.8125 2.1875ZM9.40625 3.9375C9.53604 3.9375 9.66292 3.97599 9.77084 4.0481C9.87876 4.12021 9.96288 4.2227 10.0125 4.34261C10.0622 4.46253 10.0752 4.59448 10.0499 4.72178C10.0246 4.84908 9.96207 4.96601 9.87029 5.05779C9.77851 5.14957 9.66158 5.21207 9.53428 5.23739C9.40698 5.26271 9.27503 5.24972 9.15511 5.20005C9.0352 5.15038 8.93271 5.06626 8.8606 4.95834C8.78849 4.85042 8.75 4.72354 8.75 4.59375C8.75 4.4197 8.81914 4.25278 8.94221 4.12971C9.06528 4.00664 9.2322 3.9375 9.40625 3.9375ZM10.0625 10.9375H2.1875V4.8125H3.0625V9.1875C3.0625 9.41956 3.15469 9.64212 3.31878 9.80622C3.48288 9.97031 3.70544 10.0625 3.9375 10.0625H10.0625V10.9375ZM11.8125 9.1875H3.9375V7.21875L5.90625 5.25L8.62203 7.96578C8.70407 8.04777 8.81531 8.09382 8.93129 8.09382C9.04727 8.09382 9.15851 8.04777 9.24055 7.96578L10.6438 6.5625L11.8125 7.73172V9.1875Z" fill="white" fill-opacity="0.8"/>
</svg>
