<svg width="100" height="29" viewBox="0 0 100 29" fill="none" xmlns="http://www.w3.org/2000/svg">
<g opacity="0.7">
<path d="M25.976 23.072L20.72 4.352C20.704 4.272 20.72 4.2 20.768 4.136C20.816 4.072 20.88 4.04 20.96 4.04H26.072C26.12 4.04 26.168 4.056 26.216 4.088C26.264 4.12 26.296 4.16 26.312 4.208L29.12 14.576L32.36 4.208C32.376 4.176 32.408 4.144 32.456 4.112C32.504 4.064 32.552 4.04 32.6 4.04H36.872C36.92 4.04 36.968 4.064 37.016 4.112C37.064 4.144 37.096 4.176 37.112 4.208L40.352 14.552L43.16 4.208C43.176 4.16 43.208 4.12 43.256 4.088C43.304 4.056 43.352 4.04 43.4 4.04H48.536C48.696 4.04 48.776 4.12 48.776 4.28V4.352L43.52 23.072C43.504 23.104 43.472 23.136 43.424 23.168C43.376 23.216 43.328 23.24 43.28 23.24H38.312C38.28 23.24 38.24 23.224 38.192 23.192C38.144 23.16 38.112 23.12 38.096 23.072L34.736 12.896L31.424 23.072C31.408 23.104 31.376 23.136 31.328 23.168C31.28 23.216 31.232 23.24 31.184 23.24H26.216C26.168 23.24 26.12 23.216 26.072 23.168C26.024 23.136 25.992 23.104 25.976 23.072ZM20.96 4.28L26.216 23H31.184L34.736 12.128L38.312 23H43.28L48.536 4.28H43.4L40.376 15.416L36.872 4.28H32.6L29.096 15.44L26.072 4.28H20.96ZM52.1784 9.824C53.3304 9.184 54.5544 8.864 55.8504 8.864C57.1464 8.864 58.3624 9.184 59.4984 9.824C60.6344 10.448 61.5384 11.312 62.2104 12.416C62.8984 13.504 63.2424 14.704 63.2424 16.016C63.2424 17.328 62.8984 18.536 62.2104 19.64C61.5384 20.728 60.6344 21.592 59.4984 22.232C58.3784 22.872 57.1624 23.192 55.8504 23.192C54.5384 23.192 53.3144 22.88 52.1784 22.256C51.0424 21.616 50.1304 20.752 49.4424 19.664C48.7704 18.56 48.4344 17.344 48.4344 16.016C48.4344 14.704 48.7704 13.504 49.4424 12.416C50.1304 11.312 51.0424 10.448 52.1784 9.824ZM49.6344 12.608C48.9944 13.664 48.6744 14.8 48.6744 16.016C48.6744 17.248 48.9944 18.4 49.6344 19.472C50.2744 20.528 51.1384 21.376 52.2264 22.016C53.3304 22.64 54.5384 22.952 55.8504 22.952C57.1624 22.952 58.3624 22.64 59.4504 22.016C60.5384 21.376 61.4024 20.528 62.0424 19.472C62.6824 18.4 63.0024 17.248 63.0024 16.016C63.0024 14.8 62.6824 13.664 62.0424 12.608C61.4024 11.536 60.5384 10.688 59.4504 10.064C58.3624 9.424 57.1624 9.104 55.8504 9.104C54.5384 9.104 53.3304 9.424 52.2264 10.064C51.1384 10.688 50.2744 11.536 49.6344 12.608ZM58.7304 14.384C59.0184 14.88 59.1624 15.424 59.1624 16.016C59.1624 16.608 59.0184 17.16 58.7304 17.672C58.4424 18.184 58.0424 18.592 57.5304 18.896C57.0344 19.184 56.4744 19.328 55.8504 19.328C55.2264 19.328 54.6584 19.176 54.1464 18.872C53.6344 18.568 53.2344 18.168 52.9464 17.672C52.6584 17.16 52.5144 16.608 52.5144 16.016C52.5144 15.44 52.6584 14.904 52.9464 14.408C53.2344 13.896 53.6344 13.488 54.1464 13.184C54.6584 12.88 55.2264 12.728 55.8504 12.728C56.4744 12.728 57.0344 12.88 57.5304 13.184C58.0424 13.472 58.4424 13.872 58.7304 14.384ZM58.0104 13.856C57.4184 13.264 56.6984 12.968 55.8504 12.968C55.2904 12.968 54.7704 13.104 54.2904 13.376C53.8264 13.648 53.4504 14.016 53.1624 14.48C52.8904 14.944 52.7544 15.456 52.7544 16.016C52.7544 16.576 52.8904 17.096 53.1624 17.576C53.4504 18.04 53.8264 18.408 54.2904 18.68C54.7704 18.952 55.2904 19.088 55.8504 19.088C56.7144 19.088 57.4424 18.792 58.0344 18.2C58.6264 17.608 58.9224 16.88 58.9224 16.016C58.9224 15.168 58.6184 14.448 58.0104 13.856ZM67.9282 23.072L62.6722 4.352C62.6562 4.272 62.6722 4.2 62.7202 4.136C62.7682 4.072 62.8322 4.04 62.9122 4.04H68.0242C68.0722 4.04 68.1202 4.056 68.1682 4.088C68.2162 4.12 68.2482 4.16 68.2642 4.208L71.0722 14.576L74.3122 4.208C74.3282 4.176 74.3602 4.144 74.4082 4.112C74.4562 4.064 74.5042 4.04 74.5522 4.04H78.8242C78.8722 4.04 78.9202 4.064 78.9682 4.112C79.0162 4.144 79.0482 4.176 79.0642 4.208L82.3042 14.552L85.1122 4.208C85.1282 4.16 85.1602 4.12 85.2082 4.088C85.2562 4.056 85.3042 4.04 85.3522 4.04H90.4882C90.6482 4.04 90.7282 4.12 90.7282 4.28V4.352L85.4722 23.072C85.4562 23.104 85.4242 23.136 85.3762 23.168C85.3282 23.216 85.2802 23.24 85.2322 23.24H80.2642C80.2322 23.24 80.1922 23.224 80.1442 23.192C80.0962 23.16 80.0642 23.12 80.0482 23.072L76.6882 12.896L73.3762 23.072C73.3602 23.104 73.3282 23.136 73.2802 23.168C73.2322 23.216 73.1842 23.24 73.1362 23.24H68.1682C68.1202 23.24 68.0722 23.216 68.0242 23.168C67.9762 23.136 67.9442 23.104 67.9282 23.072ZM62.9122 4.28L68.1682 23H73.1362L76.6882 12.128L80.2642 23H85.2322L90.4882 4.28H85.3522L82.3282 15.416L78.8242 4.28H74.5522L71.0482 15.44L68.0242 4.28H62.9122ZM94.0766 16.208L92.9966 4.304C92.9806 4.24 92.9966 4.184 93.0446 4.136C93.0926 4.072 93.1566 4.04 93.2366 4.04H98.5886C98.6526 4.04 98.7086 4.064 98.7566 4.112C98.8046 4.144 98.8286 4.192 98.8286 4.256V4.304L97.7486 16.208C97.7486 16.272 97.7246 16.328 97.6766 16.376C97.6286 16.408 97.5726 16.424 97.5086 16.424H94.3166C94.2526 16.424 94.1966 16.408 94.1486 16.376C94.1006 16.328 94.0766 16.272 94.0766 16.208ZM93.2366 4.28L94.3166 16.184H97.5086L98.5886 4.28H93.2366ZM93.0686 22.016C92.7806 21.52 92.6366 20.976 92.6366 20.384C92.6366 19.792 92.7806 19.248 93.0686 18.752C93.3726 18.256 93.7726 17.864 94.2686 17.576C94.7646 17.272 95.3086 17.12 95.9006 17.12C96.4926 17.12 97.0366 17.272 97.5326 17.576C98.0286 17.864 98.4206 18.256 98.7086 18.752C99.0126 19.248 99.1646 19.792 99.1646 20.384C99.1646 20.976 99.0126 21.52 98.7086 22.016C98.4206 22.512 98.0286 22.904 97.5326 23.192C97.0366 23.496 96.4926 23.648 95.9006 23.648C95.3086 23.648 94.7646 23.496 94.2686 23.192C93.7726 22.904 93.3726 22.512 93.0686 22.016ZM93.7646 22.52C94.3566 23.112 95.0686 23.408 95.9006 23.408C96.7326 23.408 97.4446 23.112 98.0366 22.52C98.6286 21.928 98.9246 21.216 98.9246 20.384C98.9246 19.552 98.6286 18.84 98.0366 18.248C97.4446 17.656 96.7326 17.36 95.9006 17.36C95.0686 17.36 94.3566 17.656 93.7646 18.248C93.1726 18.84 92.8766 19.552 92.8766 20.384C92.8766 21.216 93.1726 21.928 93.7646 22.52Z" fill="white"/>
<path d="M25.976 23.072L25.6872 23.1531L25.6949 23.1806L25.7077 23.2062L25.976 23.072ZM20.72 4.352L20.4258 4.41083L20.4281 4.42207L20.4312 4.43309L20.72 4.352ZM20.768 4.136L21.008 4.316L21.008 4.316L20.768 4.136ZM26.216 4.088L26.3824 3.83838L26.3824 3.83838L26.216 4.088ZM26.312 4.208L26.6016 4.12957L26.5993 4.12128L26.5966 4.11313L26.312 4.208ZM29.12 14.576L28.8304 14.6544L29.0994 15.6476L29.4063 14.6655L29.12 14.576ZM32.36 4.208L32.0917 4.07383L32.0809 4.09545L32.0737 4.11852L32.36 4.208ZM32.456 4.112L32.6224 4.36161L32.6471 4.34514L32.6681 4.32413L32.456 4.112ZM37.016 4.112L36.8039 4.32413L36.8249 4.34514L36.8496 4.36161L37.016 4.112ZM37.112 4.208L37.3983 4.11833L37.3911 4.09536L37.3803 4.07383L37.112 4.208ZM40.352 14.552L40.0657 14.6417L40.3726 15.6213L40.6415 14.6306L40.352 14.552ZM43.16 4.208L42.8754 4.11313L42.8727 4.1212L42.8705 4.1294L43.16 4.208ZM43.256 4.088L43.0896 3.83838L43.0896 3.83838L43.256 4.088ZM48.776 4.352L49.0648 4.43309L49.076 4.39332V4.352H48.776ZM43.52 23.072L43.7883 23.2062L43.8011 23.1806L43.8088 23.1531L43.52 23.072ZM43.424 23.168L43.2576 22.9184L43.2329 22.9349L43.2119 22.9559L43.424 23.168ZM38.192 23.192L38.0256 23.4416L38.0256 23.4416L38.192 23.192ZM38.096 23.072L37.8111 23.1661L37.8114 23.1669L38.096 23.072ZM34.736 12.896L35.0209 12.8019L34.7339 11.933L34.4507 12.8032L34.736 12.896ZM31.424 23.072L31.6923 23.2062L31.7023 23.1861L31.7093 23.1648L31.424 23.072ZM31.328 23.168L31.1616 22.9184L31.1369 22.9349L31.1159 22.9559L31.328 23.168ZM26.072 23.168L26.2841 22.9559L26.2631 22.9349L26.2384 22.9184L26.072 23.168ZM20.96 4.28V3.98H20.5642L20.6712 4.36109L20.96 4.28ZM26.216 23L25.9272 23.0811L25.9886 23.3H26.216V23ZM31.184 23V23.3H31.4016L31.4692 23.0932L31.184 23ZM34.736 12.128L35.021 12.0343L34.735 11.1649L34.4508 12.0348L34.736 12.128ZM38.312 23L38.027 23.0937L38.0949 23.3H38.312V23ZM43.28 23V23.3H43.5074L43.5688 23.0811L43.28 23ZM48.536 4.28L48.8248 4.36109L48.9318 3.98H48.536V4.28ZM43.4 4.28V3.98H43.1706L43.1105 4.20138L43.4 4.28ZM40.376 15.416L40.0898 15.506L40.3972 16.4828L40.6655 15.4946L40.376 15.416ZM36.872 4.28L37.1582 4.18996L37.0921 3.98H36.872V4.28ZM32.6 4.28V3.98H32.3798L32.3138 4.19013L32.6 4.28ZM29.096 15.44L28.8064 15.5185L29.0748 16.5089L29.3822 15.5299L29.096 15.44ZM26.072 4.28L26.3616 4.20154L26.3015 3.98H26.072V4.28ZM26.2648 22.9909L21.0088 4.2709L20.4312 4.43309L25.6872 23.1531L26.2648 22.9909ZM21.0142 4.29317C21.0138 4.29113 21.014 4.29136 21.014 4.2935C21.014 4.29572 21.0137 4.29907 21.0129 4.30308C21.012 4.3071 21.0107 4.31059 21.0094 4.31324C21.0082 4.31583 21.0074 4.31674 21.008 4.316L20.528 3.956C20.4276 4.08981 20.3935 4.24903 20.4258 4.41083L21.0142 4.29317ZM21.008 4.316C21.008 4.316 21.008 4.31601 21.008 4.31603C21.008 4.31605 21.0079 4.31607 21.0079 4.31611C21.0079 4.31618 21.0078 4.31629 21.0077 4.31643C21.0074 4.31671 21.0071 4.31712 21.0066 4.31763C21.0056 4.31868 21.0042 4.32011 21.0022 4.32178C20.9982 4.32525 20.9928 4.32902 20.9862 4.33233C20.9718 4.33951 20.961 4.34 20.96 4.34V3.74C20.7856 3.74 20.6327 3.81646 20.528 3.956L21.008 4.316ZM20.96 4.34H26.072V3.74H20.96V4.34ZM26.072 4.34C26.062 4.34 26.0541 4.33825 26.0491 4.3366C26.0446 4.33509 26.0447 4.33438 26.0496 4.33761L26.3824 3.83838C26.2952 3.78026 26.1903 3.74 26.072 3.74V4.34ZM26.0496 4.33761C26.0511 4.33862 26.0473 4.33634 26.0417 4.32941C26.0359 4.32212 26.0307 4.31287 26.0274 4.30287L26.5966 4.11313C26.5566 3.99312 26.4778 3.90195 26.3824 3.83838L26.0496 4.33761ZM26.0224 4.28642L28.8304 14.6544L29.4096 14.4976L26.6016 4.12957L26.0224 4.28642ZM29.4063 14.6655L32.6463 4.29748L32.0737 4.11852L28.8337 14.4865L29.4063 14.6655ZM32.6283 4.34216C32.6187 4.36148 32.6092 4.37109 32.6081 4.37213C32.607 4.37329 32.6106 4.36948 32.6224 4.36161L32.2896 3.86238C32.2221 3.90741 32.1412 3.97483 32.0917 4.07383L32.6283 4.34216ZM32.6681 4.32413C32.6751 4.31718 32.6735 4.32067 32.6622 4.32633C32.6495 4.33267 32.6278 4.34 32.6 4.34V3.74C32.4444 3.74 32.3246 3.81917 32.2439 3.89987L32.6681 4.32413ZM32.6 4.34H36.872V3.74H32.6V4.34ZM36.872 4.34C36.8442 4.34 36.8225 4.33267 36.8098 4.32633C36.7985 4.32067 36.7969 4.31718 36.8039 4.32413L37.2281 3.89986C37.1474 3.81917 37.0276 3.74 36.872 3.74V4.34ZM36.8496 4.36161C36.8614 4.36948 36.865 4.37329 36.8639 4.37213C36.8628 4.37109 36.8533 4.36148 36.8437 4.34217L37.3803 4.07383C37.3308 3.97483 37.2499 3.90741 37.1824 3.86239L36.8496 4.36161ZM36.8257 4.29767L40.0657 14.6417L40.6383 14.4623L37.3983 4.11833L36.8257 4.29767ZM40.6415 14.6306L43.4495 4.28659L42.8705 4.1294L40.0625 14.4734L40.6415 14.6306ZM43.4446 4.30287C43.4413 4.31287 43.4361 4.32212 43.4303 4.32941C43.4247 4.33634 43.4209 4.33862 43.4224 4.33761L43.0896 3.83838C42.9942 3.90195 42.9154 3.99312 42.8754 4.11313L43.4446 4.30287ZM43.4224 4.33762C43.4273 4.33438 43.4274 4.33509 43.4229 4.3366C43.4179 4.33825 43.41 4.34 43.4 4.34V3.74C43.2817 3.74 43.1768 3.78026 43.0896 3.83838L43.4224 4.33762ZM43.4 4.34H48.536V3.74H43.4V4.34ZM48.536 4.34C48.5698 4.34 48.54 4.34824 48.5039 4.31213C48.4678 4.27603 48.476 4.24624 48.476 4.28H49.076C49.076 4.15376 49.0442 4.00397 48.9281 3.88787C48.812 3.77176 48.6622 3.74 48.536 3.74V4.34ZM48.476 4.28V4.352H49.076V4.28H48.476ZM48.4872 4.2709L43.2312 22.9909L43.8088 23.1531L49.0648 4.43309L48.4872 4.2709ZM43.2517 22.9378C43.2613 22.9185 43.2708 22.9089 43.2719 22.9079C43.273 22.9067 43.2694 22.9105 43.2576 22.9184L43.5904 23.4176C43.6579 23.3726 43.7388 23.3052 43.7883 23.2062L43.2517 22.9378ZM43.2119 22.9559C43.2049 22.9628 43.2065 22.9593 43.2178 22.9537C43.2305 22.9473 43.2522 22.94 43.28 22.94V23.54C43.4356 23.54 43.5554 23.4608 43.6361 23.3801L43.2119 22.9559ZM43.28 22.94H38.312V23.54H43.28V22.94ZM38.312 22.94C38.3449 22.94 38.3655 22.9479 38.3694 22.9495C38.3739 22.9513 38.3705 22.9505 38.3584 22.9424L38.0256 23.4416C38.0885 23.4836 38.1898 23.54 38.312 23.54V22.94ZM38.3584 22.9424C38.3569 22.9414 38.3607 22.9437 38.3663 22.9506C38.3721 22.9579 38.3773 22.9671 38.3806 22.9771L37.8114 23.1669C37.8514 23.2869 37.9302 23.3781 38.0256 23.4416L38.3584 22.9424ZM38.3809 22.9779L35.0209 12.8019L34.4511 12.9901L37.8111 23.1661L38.3809 22.9779ZM34.4507 12.8032L31.1387 22.9792L31.7093 23.1648L35.0213 12.9888L34.4507 12.8032ZM31.1557 22.9378C31.1653 22.9185 31.1748 22.9089 31.1759 22.9079C31.177 22.9067 31.1734 22.9105 31.1616 22.9184L31.4944 23.4176C31.5619 23.3726 31.6428 23.3052 31.6923 23.2062L31.1557 22.9378ZM31.1159 22.9559C31.1089 22.9628 31.1105 22.9593 31.1218 22.9537C31.1345 22.9473 31.1562 22.94 31.184 22.94V23.54C31.3396 23.54 31.4594 23.4608 31.5401 23.3801L31.1159 22.9559ZM31.184 22.94H26.216V23.54H31.184V22.94ZM26.216 22.94C26.2438 22.94 26.2655 22.9473 26.2782 22.9537C26.2895 22.9593 26.2911 22.9628 26.2841 22.9559L25.8599 23.3801C25.9406 23.4608 26.0604 23.54 26.216 23.54V22.94ZM26.2384 22.9184C26.2266 22.9105 26.223 22.9067 26.2241 22.9079C26.2252 22.9089 26.2347 22.9185 26.2443 22.9378L25.7077 23.2062C25.7572 23.3052 25.8381 23.3726 25.9056 23.4176L26.2384 22.9184ZM20.6712 4.36109L25.9272 23.0811L26.5048 22.9189L21.2488 4.1989L20.6712 4.36109ZM26.216 23.3H31.184V22.7H26.216V23.3ZM31.4692 23.0932L35.0212 12.2212L34.4508 12.0348L30.8988 22.9068L31.4692 23.0932ZM34.451 12.2217L38.027 23.0937L38.597 22.9063L35.021 12.0343L34.451 12.2217ZM38.312 23.3H43.28V22.7H38.312V23.3ZM43.5688 23.0811L48.8248 4.36109L48.2472 4.1989L42.9912 22.9189L43.5688 23.0811ZM48.536 3.98H43.4V4.58H48.536V3.98ZM43.1105 4.20138L40.0865 15.3374L40.6655 15.4946L43.6895 4.35862L43.1105 4.20138ZM40.6622 15.326L37.1582 4.18996L36.5858 4.37004L40.0898 15.506L40.6622 15.326ZM36.872 3.98H32.6V4.58H36.872V3.98ZM32.3138 4.19013L28.8098 15.3501L29.3822 15.5299L32.8862 4.36987L32.3138 4.19013ZM29.3856 15.3615L26.3616 4.20154L25.7824 4.35846L28.8064 15.5185L29.3856 15.3615ZM26.072 3.98H20.96V4.58H26.072V3.98ZM52.1784 9.824L52.3228 10.0869L52.3241 10.0862L52.1784 9.824ZM59.4984 9.824L59.3511 10.0854L59.3539 10.0869L59.4984 9.824ZM62.2104 12.416L61.9541 12.572L61.9568 12.5763L62.2104 12.416ZM62.2104 19.64L61.9558 19.4813L61.9551 19.4824L62.2104 19.64ZM59.4984 22.232L59.3511 21.9706L59.3495 21.9715L59.4984 22.232ZM52.1784 22.256L52.0311 22.5174L52.0339 22.5189L52.1784 22.256ZM49.4424 19.664L49.1861 19.82L49.1888 19.8243L49.4424 19.664ZM49.4424 12.416L49.1878 12.2573L49.1871 12.2584L49.4424 12.416ZM49.6344 12.608L49.8909 12.7635L49.892 12.7618L49.6344 12.608ZM49.6344 19.472L49.3768 19.6258L49.3778 19.6275L49.6344 19.472ZM52.2264 22.016L52.0742 22.2746L52.0788 22.2772L52.2264 22.016ZM59.4504 22.016L59.5996 22.2763L59.6025 22.2746L59.4504 22.016ZM62.0424 19.472L62.2989 19.6275L62.3 19.6258L62.0424 19.472ZM62.0424 12.608L61.7848 12.7618L61.7858 12.7635L62.0424 12.608ZM59.4504 10.064L59.2983 10.3226L59.3011 10.3242L59.4504 10.064ZM52.2264 10.064L52.3756 10.3242L52.3768 10.3235L52.2264 10.064ZM58.7304 14.384L58.4689 14.5311L58.4709 14.5346L58.7304 14.384ZM58.7304 17.672L58.4689 17.5249L58.7304 17.672ZM57.5304 18.896L57.681 19.1554L57.6835 19.154L57.5304 18.896ZM54.1464 18.872L53.9932 19.13L54.1464 18.872ZM52.9464 17.672L52.6849 17.8191L52.6869 17.8226L52.9464 17.672ZM52.9464 14.408L53.2058 14.5587L53.2078 14.5551L52.9464 14.408ZM54.1464 13.184L54.2995 13.442L54.1464 13.184ZM57.5304 13.184L57.3735 13.44L57.3833 13.4455L57.5304 13.184ZM58.0104 13.856L57.7982 14.0682L57.8011 14.0709L58.0104 13.856ZM54.2904 13.376L54.1425 13.115L54.1387 13.1172L54.2904 13.376ZM53.1624 14.48L52.9074 14.3217L52.9036 14.3283L53.1624 14.48ZM53.1624 17.576L52.9012 17.724L52.9075 17.7342L53.1624 17.576ZM54.2904 18.68L54.1386 18.9388L54.1425 18.941L54.2904 18.68ZM58.0344 18.2L58.2465 18.4121L58.0344 18.2ZM52.3241 10.0862C53.4323 9.47057 54.6063 9.164 55.8504 9.164V8.564C54.5025 8.564 53.2285 8.89743 52.0327 9.56175L52.3241 10.0862ZM55.8504 9.164C57.0945 9.164 58.2598 9.47053 59.3511 10.0854L59.6456 9.56262C58.465 8.89746 57.1983 8.564 55.8504 8.564V9.164ZM59.3539 10.0869C60.4441 10.6858 61.3095 11.5129 61.9541 12.572L62.4666 12.26C61.7673 11.1111 60.8247 10.2102 59.6428 9.56106L59.3539 10.0869ZM61.9568 12.5763C62.6139 13.6154 62.9424 14.7596 62.9424 16.016H63.5424C63.5424 14.6484 63.1829 13.3926 62.4639 12.2557L61.9568 12.5763ZM62.9424 16.016C62.9424 17.2724 62.6138 18.4254 61.9558 19.4813L62.465 19.7987C63.1829 18.6466 63.5424 17.3836 63.5424 16.016H62.9424ZM61.9551 19.4824C61.3103 20.5263 60.4438 21.355 59.3511 21.9706L59.6456 22.4934C60.8249 21.829 61.7664 20.9297 62.4656 19.7976L61.9551 19.4824ZM59.3495 21.9715C58.2757 22.5852 57.1111 22.892 55.8504 22.892V23.492C57.2136 23.492 58.4811 23.1588 59.6472 22.4925L59.3495 21.9715ZM55.8504 22.892C54.5882 22.892 53.414 22.5924 52.3228 21.9931L52.0339 22.5189C53.2148 23.1676 54.4885 23.492 55.8504 23.492V22.892ZM52.3256 21.9946C51.2323 21.3787 50.357 20.5491 49.6959 19.5037L49.1888 19.8243C49.9037 20.9549 50.8525 21.8533 52.0311 22.5174L52.3256 21.9946ZM49.6986 19.508C49.0561 18.4524 48.7344 17.2906 48.7344 16.016H48.1344C48.1344 17.3974 48.4847 18.6676 49.1861 19.82L49.6986 19.508ZM48.7344 16.016C48.7344 14.7582 49.0557 13.613 49.6976 12.5736L49.1871 12.2584C48.4851 13.395 48.1344 14.6498 48.1344 16.016H48.7344ZM49.697 12.5747C50.3579 11.5141 51.232 10.6861 52.3228 10.0869L52.0339 9.56106C50.8527 10.2099 49.9028 11.1099 49.1878 12.2573L49.697 12.5747ZM49.3778 12.4525C48.7099 13.5546 48.3744 14.7443 48.3744 16.016H48.9744C48.9744 14.8557 49.2789 13.7734 49.8909 12.7635L49.3778 12.4525ZM48.3744 16.016C48.3744 17.3029 48.7094 18.5079 49.3768 19.6258L49.892 19.3182C49.2793 18.2921 48.9744 17.1931 48.9744 16.016H48.3744ZM49.3778 19.6275C50.0442 20.7269 50.9444 21.61 52.0743 22.2746L52.3785 21.7574C51.3323 21.142 50.5046 20.3291 49.8909 19.3165L49.3778 19.6275ZM52.0788 22.2772C53.2294 22.9275 54.4885 23.252 55.8504 23.252V22.652C54.5882 22.652 53.4314 22.3525 52.374 21.7548L52.0788 22.2772ZM55.8504 23.252C57.2122 23.252 58.4641 22.9275 59.5996 22.2762L59.3011 21.7558C58.2607 22.3525 57.1125 22.652 55.8504 22.652V23.252ZM59.6025 22.2746C60.7323 21.61 61.6326 20.7269 62.2989 19.6275L61.7858 19.3165C61.1722 20.3291 60.3444 21.142 59.2983 21.7574L59.6025 22.2746ZM62.3 19.6258C62.9673 18.5079 63.3024 17.3029 63.3024 16.016H62.7024C62.7024 17.1931 62.3974 18.2921 61.7848 19.3182L62.3 19.6258ZM63.3024 16.016C63.3024 14.7443 62.9669 13.5546 62.2989 12.4525L61.7858 12.7635C62.3979 13.7734 62.7024 14.8557 62.7024 16.016H63.3024ZM62.3 12.4542C61.6335 11.3378 60.7321 10.4532 59.5996 9.80376L59.3011 10.3242C60.3447 10.9228 61.1713 11.7342 61.7848 12.7618L62.3 12.4542ZM59.6025 9.80542C58.4665 9.1372 57.2137 8.804 55.8504 8.804V9.404C57.1111 9.404 58.2582 9.71079 59.2983 10.3226L59.6025 9.80542ZM55.8504 8.804C54.4871 8.804 53.227 9.13719 52.0759 9.80446L52.3768 10.3235C53.4338 9.71081 54.5897 9.404 55.8504 9.404V8.804ZM52.0771 9.80376C50.9447 10.4532 50.0433 11.3378 49.3768 12.4542L49.892 12.7618C50.5055 11.7342 51.3321 10.9228 52.3756 10.3242L52.0771 9.80376ZM58.4709 14.5346C58.7315 14.9834 58.8624 15.4751 58.8624 16.016H59.4624C59.4624 15.3729 59.3053 14.7766 58.9898 14.2334L58.4709 14.5346ZM58.8624 16.016C58.8624 16.5569 58.7314 17.0582 58.4689 17.5249L58.9918 17.8191C59.3053 17.2618 59.4624 16.6591 59.4624 16.016H58.8624ZM58.4689 17.5249C58.207 17.9905 57.8447 18.3605 57.3772 18.638L57.6835 19.154C58.2401 18.8235 58.6777 18.3775 58.9918 17.8191L58.4689 17.5249ZM57.3797 18.6366C56.9335 18.8957 56.4263 19.028 55.8504 19.028V19.628C56.5225 19.628 57.1353 19.4723 57.681 19.1554L57.3797 18.6366ZM55.8504 19.028C55.2776 19.028 54.7629 18.8892 54.2995 18.614L53.9932 19.13C54.5538 19.4628 55.1752 19.628 55.8504 19.628V19.028ZM54.2995 18.614C53.8298 18.3351 53.4671 17.9714 53.2058 17.5214L52.6869 17.8226C53.0016 18.3646 53.439 18.8009 53.9932 19.13L54.2995 18.614ZM53.2078 17.5249C52.9453 17.0582 52.8144 16.5569 52.8144 16.016H52.2144C52.2144 16.6591 52.3714 17.2618 52.6849 17.8191L53.2078 17.5249ZM52.8144 16.016C52.8144 15.4927 52.9445 15.0087 53.2058 14.5586L52.6869 14.2574C52.3722 14.7993 52.2144 15.3873 52.2144 16.016H52.8144ZM53.2078 14.5551C53.4697 14.0895 53.8321 13.7195 54.2995 13.442L53.9932 12.926C53.4367 13.2565 52.999 13.7025 52.6849 14.2609L53.2078 14.5551ZM54.2995 13.442C54.7629 13.1668 55.2776 13.028 55.8504 13.028V12.428C55.1752 12.428 54.5538 12.5932 53.9932 12.926L54.2995 13.442ZM55.8504 13.028C56.4232 13.028 56.9282 13.1668 57.3736 13.4398L57.6871 12.9282C57.1405 12.5932 56.5255 12.428 55.8504 12.428V13.028ZM57.3833 13.4455C57.8474 13.7065 58.2078 14.067 58.4689 14.5311L58.9918 14.2369C58.6769 13.677 58.2373 13.2375 57.6775 12.9225L57.3833 13.4455ZM58.2225 13.6439C57.5734 12.9948 56.7768 12.668 55.8504 12.668V13.268C56.62 13.268 57.2633 13.5332 57.7982 14.0681L58.2225 13.6439ZM55.8504 12.668C55.2393 12.668 54.6683 12.817 54.1425 13.115L54.4383 13.637C54.8725 13.391 55.3414 13.268 55.8504 13.268V12.668ZM54.1387 13.1172C53.6319 13.4142 53.2208 13.817 52.9075 14.3218L53.4173 14.6382C53.68 14.215 54.0208 13.8818 54.4421 13.6348L54.1387 13.1172ZM52.9036 14.3283C52.6035 14.8402 52.4544 15.405 52.4544 16.016H53.0544C53.0544 15.507 53.1773 15.0478 53.4212 14.6317L52.9036 14.3283ZM52.4544 16.016C52.4544 16.627 52.6034 17.1981 52.9014 17.7239L53.4234 17.4281C53.1773 16.9939 53.0544 16.525 53.0544 16.016H52.4544ZM52.9075 17.7342C53.2208 18.239 53.6319 18.6418 54.1387 18.9388L54.4421 18.4212C54.0208 18.1742 53.68 17.841 53.4173 17.4178L52.9075 17.7342ZM54.1425 18.941C54.6683 19.239 55.2393 19.388 55.8504 19.388V18.788C55.3414 18.788 54.8725 18.665 54.4383 18.419L54.1425 18.941ZM55.8504 19.388C56.7911 19.388 57.5963 19.0624 58.2465 18.4121L57.8222 17.9879C57.2885 18.5216 56.6377 18.788 55.8504 18.788V19.388ZM58.2465 18.4121C58.8967 17.7619 59.2224 16.9567 59.2224 16.016H58.6224C58.6224 16.8033 58.356 17.4541 57.8222 17.9879L58.2465 18.4121ZM59.2224 16.016C59.2224 15.087 58.8856 14.2895 58.2197 13.6411L57.8011 14.0709C58.3511 14.6065 58.6224 15.249 58.6224 16.016H59.2224ZM67.9282 23.072L67.6394 23.1531L67.6471 23.1806L67.6599 23.2062L67.9282 23.072ZM62.6722 4.352L62.378 4.41083L62.3803 4.42207L62.3834 4.43309L62.6722 4.352ZM62.7202 4.136L62.9602 4.316V4.316L62.7202 4.136ZM68.1682 4.088L68.3346 3.83838L68.3346 3.83838L68.1682 4.088ZM68.2642 4.208L68.5538 4.12957L68.5515 4.12128L68.5488 4.11313L68.2642 4.208ZM71.0722 14.576L70.7826 14.6544L71.0516 15.6476L71.3585 14.6655L71.0722 14.576ZM74.3122 4.208L74.0439 4.07383L74.0331 4.09545L74.0258 4.11852L74.3122 4.208ZM74.4082 4.112L74.5746 4.36161L74.5993 4.34514L74.6203 4.32413L74.4082 4.112ZM78.9682 4.112L78.7561 4.32413L78.7771 4.34514L78.8018 4.36161L78.9682 4.112ZM79.0642 4.208L79.3505 4.11833L79.3433 4.09536L79.3325 4.07383L79.0642 4.208ZM82.3042 14.552L82.0179 14.6417L82.3248 15.6213L82.5937 14.6306L82.3042 14.552ZM85.1122 4.208L84.8276 4.11313L84.8249 4.1212L84.8227 4.1294L85.1122 4.208ZM85.2082 4.088L85.0418 3.83838V3.83838L85.2082 4.088ZM90.7282 4.352L91.017 4.43309L91.0282 4.39332V4.352H90.7282ZM85.4722 23.072L85.7405 23.2062L85.7533 23.1806L85.761 23.1531L85.4722 23.072ZM85.3762 23.168L85.2098 22.9184L85.1851 22.9349L85.1641 22.9559L85.3762 23.168ZM80.1442 23.192L79.9778 23.4416L79.9778 23.4416L80.1442 23.192ZM80.0482 23.072L79.7633 23.1661L79.7636 23.1669L80.0482 23.072ZM76.6882 12.896L76.9731 12.8019L76.6861 11.933L76.4029 12.8032L76.6882 12.896ZM73.3762 23.072L73.6445 23.2062L73.6545 23.1861L73.6615 23.1648L73.3762 23.072ZM73.2802 23.168L73.1138 22.9184L73.0891 22.9349L73.0681 22.9559L73.2802 23.168ZM68.0242 23.168L68.2363 22.9559L68.2153 22.9349L68.1906 22.9184L68.0242 23.168ZM62.9122 4.28V3.98H62.5164L62.6234 4.36109L62.9122 4.28ZM68.1682 23L67.8794 23.0811L67.9408 23.3H68.1682V23ZM73.1362 23V23.3H73.3538L73.4214 23.0932L73.1362 23ZM76.6882 12.128L76.9732 12.0343L76.6872 11.1649L76.403 12.0348L76.6882 12.128ZM80.2642 23L79.9792 23.0937L80.0471 23.3H80.2642V23ZM85.2322 23V23.3H85.4596L85.521 23.0811L85.2322 23ZM90.4882 4.28L90.777 4.36109L90.884 3.98H90.4882V4.28ZM85.3522 4.28V3.98H85.1228L85.0627 4.20138L85.3522 4.28ZM82.3282 15.416L82.042 15.506L82.3494 16.4828L82.6177 15.4946L82.3282 15.416ZM78.8242 4.28L79.1104 4.18996L79.0443 3.98H78.8242V4.28ZM74.5522 4.28V3.98H74.3319L74.266 4.19013L74.5522 4.28ZM71.0482 15.44L70.7586 15.5185L71.027 16.5089L71.3344 15.5299L71.0482 15.44ZM68.0242 4.28L68.3137 4.20154L68.2537 3.98H68.0242V4.28ZM68.217 22.9909L62.961 4.2709L62.3834 4.43309L67.6394 23.1531L68.217 22.9909ZM62.9664 4.29317C62.966 4.29113 62.9662 4.29136 62.9662 4.2935C62.9662 4.29572 62.9659 4.29907 62.965 4.30308C62.9641 4.3071 62.9629 4.31059 62.9616 4.31324C62.9604 4.31583 62.9596 4.31674 62.9602 4.316L62.4802 3.956C62.3798 4.08981 62.3457 4.24903 62.378 4.41083L62.9664 4.29317ZM62.9602 4.316C62.9602 4.316 62.9602 4.31601 62.9602 4.31603C62.9602 4.31605 62.9601 4.31607 62.9601 4.31611C62.96 4.31618 62.96 4.31629 62.9598 4.31643C62.9596 4.31671 62.9593 4.31712 62.9588 4.31763C62.9578 4.31868 62.9564 4.32011 62.9544 4.32178C62.9504 4.32525 62.945 4.32902 62.9384 4.33233C62.924 4.33951 62.9132 4.34 62.9122 4.34V3.74C62.7378 3.74 62.5848 3.81646 62.4802 3.956L62.9602 4.316ZM62.9122 4.34H68.0242V3.74H62.9122V4.34ZM68.0242 4.34C68.0142 4.34 68.0062 4.33825 68.0013 4.3366C67.9968 4.33509 67.9969 4.33438 68.0018 4.33761L68.3346 3.83838C68.2474 3.78026 68.1425 3.74 68.0242 3.74V4.34ZM68.0018 4.33761C68.0033 4.33862 67.9995 4.33634 67.9939 4.32941C67.9881 4.32212 67.9829 4.31287 67.9796 4.30287L68.5488 4.11313C68.5088 3.99312 68.4299 3.90195 68.3346 3.83838L68.0018 4.33761ZM67.9746 4.28642L70.7826 14.6544L71.3618 14.4976L68.5538 4.12957L67.9746 4.28642ZM71.3585 14.6655L74.5985 4.29748L74.0258 4.11852L70.7858 14.4865L71.3585 14.6655ZM74.5805 4.34216C74.5709 4.36148 74.5614 4.37109 74.5603 4.37213C74.5592 4.37329 74.5628 4.36948 74.5746 4.36161L74.2418 3.86238C74.1742 3.90741 74.0934 3.97483 74.0439 4.07383L74.5805 4.34216ZM74.6203 4.32413C74.6273 4.31718 74.6257 4.32067 74.6143 4.32633C74.6017 4.33267 74.58 4.34 74.5522 4.34V3.74C74.3966 3.74 74.2768 3.81917 74.1961 3.89987L74.6203 4.32413ZM74.5522 4.34H78.8242V3.74H74.5522V4.34ZM78.8242 4.34C78.7964 4.34 78.7747 4.33267 78.762 4.32633C78.7507 4.32067 78.7491 4.31718 78.7561 4.32413L79.1803 3.89986C79.0996 3.81917 78.9798 3.74 78.8242 3.74V4.34ZM78.8018 4.36161C78.8136 4.36948 78.8172 4.37329 78.8161 4.37213C78.815 4.37109 78.8055 4.36148 78.7959 4.34217L79.3325 4.07383C79.283 3.97483 79.2021 3.90741 79.1346 3.86239L78.8018 4.36161ZM78.7779 4.29767L82.0179 14.6417L82.5905 14.4623L79.3505 4.11833L78.7779 4.29767ZM82.5937 14.6306L85.4017 4.28659L84.8227 4.1294L82.0147 14.4734L82.5937 14.6306ZM85.3968 4.30287C85.3935 4.31287 85.3883 4.32212 85.3824 4.32941C85.3769 4.33634 85.3731 4.33862 85.3746 4.33761L85.0418 3.83838C84.9464 3.90195 84.8676 3.99312 84.8276 4.11313L85.3968 4.30287ZM85.3746 4.33762C85.3794 4.33438 85.3796 4.33509 85.3751 4.3366C85.3701 4.33825 85.3621 4.34 85.3522 4.34V3.74C85.2339 3.74 85.129 3.78026 85.0418 3.83838L85.3746 4.33762ZM85.3522 4.34H90.4882V3.74H85.3522V4.34ZM90.4882 4.34C90.5219 4.34 90.4922 4.34824 90.4561 4.31213C90.42 4.27603 90.4282 4.24624 90.4282 4.28H91.0282C91.0282 4.15376 90.9964 4.00397 90.8803 3.88787C90.7642 3.77176 90.6144 3.74 90.4882 3.74V4.34ZM90.4282 4.28V4.352H91.0282V4.28H90.4282ZM90.4394 4.2709L85.1834 22.9909L85.761 23.1531L91.017 4.43309L90.4394 4.2709ZM85.2039 22.9378C85.2135 22.9185 85.223 22.9089 85.2241 22.9079C85.2252 22.9067 85.2216 22.9105 85.2098 22.9184L85.5426 23.4176C85.6101 23.3726 85.691 23.3052 85.7405 23.2062L85.2039 22.9378ZM85.1641 22.9559C85.1571 22.9628 85.1587 22.9593 85.17 22.9537C85.1827 22.9473 85.2044 22.94 85.2322 22.94V23.54C85.3878 23.54 85.5076 23.4608 85.5883 23.3801L85.1641 22.9559ZM85.2322 22.94H80.2642V23.54H85.2322V22.94ZM80.2642 22.94C80.2971 22.94 80.3177 22.9479 80.3216 22.9495C80.3261 22.9513 80.3227 22.9505 80.3106 22.9424L79.9778 23.4416C80.0407 23.4836 80.142 23.54 80.2642 23.54V22.94ZM80.3106 22.9424C80.3091 22.9414 80.3129 22.9437 80.3184 22.9506C80.3243 22.9579 80.3295 22.9671 80.3328 22.9771L79.7636 23.1669C79.8036 23.2869 79.8824 23.3781 79.9778 23.4416L80.3106 22.9424ZM80.3331 22.9779L76.9731 12.8019L76.4033 12.9901L79.7633 23.1661L80.3331 22.9779ZM76.4029 12.8032L73.0909 22.9792L73.6615 23.1648L76.9735 12.9888L76.4029 12.8032ZM73.1079 22.9378C73.1175 22.9185 73.127 22.9089 73.1281 22.9079C73.1292 22.9067 73.1256 22.9105 73.1138 22.9184L73.4466 23.4176C73.5141 23.3726 73.595 23.3052 73.6445 23.2062L73.1079 22.9378ZM73.0681 22.9559C73.0611 22.9628 73.0627 22.9593 73.074 22.9537C73.0867 22.9473 73.1084 22.94 73.1362 22.94V23.54C73.2918 23.54 73.4116 23.4608 73.4923 23.3801L73.0681 22.9559ZM73.1362 22.94H68.1682V23.54H73.1362V22.94ZM68.1682 22.94C68.196 22.94 68.2177 22.9473 68.2304 22.9537C68.2417 22.9593 68.2433 22.9628 68.2363 22.9559L67.8121 23.3801C67.8928 23.4608 68.0126 23.54 68.1682 23.54V22.94ZM68.1906 22.9184C68.1788 22.9105 68.1752 22.9067 68.1763 22.9079C68.1774 22.9089 68.1869 22.9185 68.1965 22.9378L67.6599 23.2062C67.7094 23.3052 67.7902 23.3726 67.8578 23.4176L68.1906 22.9184ZM62.6234 4.36109L67.8794 23.0811L68.457 22.9189L63.201 4.1989L62.6234 4.36109ZM68.1682 23.3H73.1362V22.7H68.1682V23.3ZM73.4214 23.0932L76.9734 12.2212L76.403 12.0348L72.851 22.9068L73.4214 23.0932ZM76.4032 12.2217L79.9792 23.0937L80.5492 22.9063L76.9732 12.0343L76.4032 12.2217ZM80.2642 23.3H85.2322V22.7H80.2642V23.3ZM85.521 23.0811L90.777 4.36109L90.1994 4.1989L84.9434 22.9189L85.521 23.0811ZM90.4882 3.98H85.3522V4.58H90.4882V3.98ZM85.0627 4.20138L82.0387 15.3374L82.6177 15.4946L85.6417 4.35862L85.0627 4.20138ZM82.6144 15.326L79.1104 4.18996L78.538 4.37004L82.042 15.506L82.6144 15.326ZM78.8242 3.98H74.5522V4.58H78.8242V3.98ZM74.266 4.19013L70.762 15.3501L71.3344 15.5299L74.8384 4.36987L74.266 4.19013ZM71.3377 15.3615L68.3137 4.20154L67.7346 4.35846L70.7586 15.5185L71.3377 15.3615ZM68.0242 3.98H62.9122V4.58H68.0242V3.98ZM94.0766 16.208H94.3766V16.1944L94.3753 16.1809L94.0766 16.208ZM92.9966 4.304L93.2953 4.27689L93.2932 4.25377L93.2876 4.23124L92.9966 4.304ZM93.0446 4.136L93.2567 4.34813L93.2718 4.33306L93.2846 4.316L93.0446 4.136ZM98.7566 4.112L98.5444 4.32413L98.5654 4.34514L98.5902 4.36161L98.7566 4.112ZM98.8286 4.304L99.1273 4.33111L99.1286 4.31758V4.304H98.8286ZM97.7486 16.208L97.4498 16.1809L97.4486 16.1944V16.208H97.7486ZM97.6766 16.376L97.843 16.6256L97.8677 16.6091L97.8887 16.5881L97.6766 16.376ZM94.1486 16.376L93.9364 16.5881L93.9574 16.6091L93.9822 16.6256L94.1486 16.376ZM93.2366 4.28V3.98H92.9081L92.9378 4.30711L93.2366 4.28ZM94.3166 16.184L94.0178 16.2111L94.0425 16.484H94.3166V16.184ZM97.5086 16.184V16.484H97.7826L97.8073 16.2111L97.5086 16.184ZM98.5886 4.28L98.8873 4.30711L98.917 3.98H98.5886V4.28ZM93.0686 22.016L92.8091 22.1667L92.8128 22.1728L93.0686 22.016ZM93.0686 18.752L92.8127 18.5952L92.8091 18.6014L93.0686 18.752ZM94.2686 17.576L94.4193 17.8355L94.4253 17.8318L94.2686 17.576ZM97.5326 17.576L97.3758 17.8319L97.3819 17.8354L97.5326 17.576ZM98.7086 18.752L98.4491 18.9027L98.4528 18.9088L98.7086 18.752ZM98.7086 22.016L98.4527 21.8592L98.4491 21.8654L98.7086 22.016ZM97.5326 23.192L97.3819 22.9325L97.3758 22.9362L97.5326 23.192ZM94.2686 23.192L94.4254 22.9361L94.4192 22.9326L94.2686 23.192ZM93.7646 22.52L93.9767 22.3079L93.7646 22.52ZM98.0366 22.52L98.2487 22.7321L98.0366 22.52ZM98.0366 18.248L98.2487 18.0359L98.0366 18.248ZM93.7646 18.248L93.9767 18.4601L93.7646 18.248ZM94.3753 16.1809L93.2953 4.27689L92.6978 4.33111L93.7778 16.2351L94.3753 16.1809ZM93.2876 4.23124C93.2906 4.24339 93.2933 4.26738 93.285 4.29642C93.2769 4.32501 93.2627 4.34209 93.2567 4.34813L92.8324 3.92387C92.7126 4.04373 92.6631 4.20695 92.7055 4.37676L93.2876 4.23124ZM93.2846 4.316C93.2846 4.316 93.2846 4.31601 93.2845 4.31603C93.2845 4.31605 93.2845 4.31607 93.2845 4.31611C93.2844 4.31618 93.2843 4.31629 93.2842 4.31643C93.284 4.31671 93.2836 4.31712 93.2831 4.31763C93.2822 4.31868 93.2807 4.32011 93.2788 4.32178C93.2748 4.32525 93.2693 4.32902 93.2627 4.33233C93.2484 4.33951 93.2376 4.34 93.2366 4.34V3.74C93.0621 3.74 92.9092 3.81646 92.8046 3.956L93.2846 4.316ZM93.2366 4.34H98.5886V3.74H93.2366V4.34ZM98.5886 4.34C98.582 4.34 98.5716 4.33855 98.5604 4.33374C98.5495 4.32909 98.5443 4.32404 98.5444 4.32413L98.9687 3.89986C98.8682 3.79939 98.7373 3.74 98.5886 3.74V4.34ZM98.5902 4.36161C98.5741 4.35089 98.5553 4.33235 98.5422 4.30616C98.5298 4.28122 98.5286 4.26168 98.5286 4.256H99.1286C99.1286 4.10461 99.0646 3.95683 98.923 3.86239L98.5902 4.36161ZM98.5286 4.256V4.304H99.1286V4.256H98.5286ZM98.5298 4.27689L97.4498 16.1809L98.0473 16.2351L99.1273 4.33111L98.5298 4.27689ZM97.4486 16.208C97.4486 16.2015 97.45 16.191 97.4548 16.1798C97.4595 16.169 97.4645 16.1638 97.4644 16.1639L97.8887 16.5881C97.9892 16.4877 98.0486 16.3568 98.0486 16.208H97.4486ZM97.5102 16.1264C97.5122 16.125 97.5146 16.124 97.5162 16.1235C97.5175 16.1232 97.5154 16.124 97.5086 16.124V16.724C97.6251 16.724 97.7404 16.694 97.843 16.6256L97.5102 16.1264ZM97.5086 16.124H94.3166V16.724H97.5086V16.124ZM94.3166 16.124C94.3097 16.124 94.3077 16.1232 94.309 16.1235C94.3105 16.124 94.3129 16.125 94.315 16.1264L93.9822 16.6256C94.0848 16.694 94.2001 16.724 94.3166 16.724V16.124ZM94.3607 16.1639C94.3606 16.1638 94.3657 16.169 94.3703 16.1798C94.3751 16.191 94.3766 16.2015 94.3766 16.208H93.7766C93.7766 16.3568 93.836 16.4877 93.9364 16.5881L94.3607 16.1639ZM92.9378 4.30711L94.0178 16.2111L94.6153 16.1569L93.5353 4.25289L92.9378 4.30711ZM94.3166 16.484H97.5086V15.884H94.3166V16.484ZM97.8073 16.2111L98.8873 4.30711L98.2898 4.25289L97.2098 16.1569L97.8073 16.2111ZM98.5886 3.98H93.2366V4.58H98.5886V3.98ZM93.328 21.8654C93.0675 21.4166 92.9366 20.9249 92.9366 20.384H92.3366C92.3366 21.0271 92.4937 21.6234 92.8091 22.1666L93.328 21.8654ZM92.9366 20.384C92.9366 19.8431 93.0675 19.3514 93.328 18.9026L92.8091 18.6014C92.4937 19.1446 92.3366 19.7409 92.3366 20.384H92.9366ZM93.3243 18.9088C93.6027 18.4545 93.9669 18.0981 94.4192 17.8354L94.1179 17.3166C93.5783 17.6299 93.1424 18.0575 92.8128 18.5952L93.3243 18.9088ZM94.4253 17.8318C94.8733 17.5572 95.3629 17.42 95.9006 17.42V16.82C95.2543 16.82 94.6558 16.9868 94.1118 17.3202L94.4253 17.8318ZM95.9006 17.42C96.4383 17.42 96.9278 17.5572 97.3758 17.8318L97.6893 17.3202C97.1453 16.9868 96.5469 16.82 95.9006 16.82V17.42ZM97.3819 17.8354C97.8328 18.0972 98.1873 18.4517 98.4491 18.9026L98.968 18.6014C98.6538 18.0603 98.2243 17.6308 97.6832 17.3166L97.3819 17.8354ZM98.4528 18.9088C98.7273 19.3567 98.8646 19.8463 98.8646 20.384H99.4646C99.4646 19.7377 99.2978 19.1393 98.9643 18.5952L98.4528 18.9088ZM98.8646 20.384C98.8646 20.9217 98.7273 21.4113 98.4528 21.8592L98.9643 22.1728C99.2978 21.6287 99.4646 21.0303 99.4646 20.384H98.8646ZM98.4491 21.8654C98.1873 22.3163 97.8328 22.6708 97.3819 22.9326L97.6832 23.4514C98.2243 23.1372 98.6538 22.7077 98.968 22.1666L98.4491 21.8654ZM97.3758 22.9362C96.9278 23.2108 96.4383 23.348 95.9006 23.348V23.948C96.5469 23.948 97.1453 23.7812 97.6893 23.4478L97.3758 22.9362ZM95.9006 23.348C95.3629 23.348 94.8733 23.2108 94.4253 22.9362L94.1118 23.4478C94.6558 23.7812 95.2543 23.948 95.9006 23.948V23.348ZM94.4192 22.9326C93.9669 22.6699 93.6027 22.3135 93.3243 21.8592L92.8128 22.1728C93.1424 22.7105 93.5783 23.1381 94.1179 23.4514L94.4192 22.9326ZM93.5524 22.7321C94.2003 23.38 94.9884 23.708 95.9006 23.708V23.108C95.1487 23.108 94.5128 22.844 93.9767 22.3079L93.5524 22.7321ZM95.9006 23.708C96.8127 23.708 97.6008 23.38 98.2487 22.7321L97.8244 22.3079C97.2883 22.844 96.6524 23.108 95.9006 23.108V23.708ZM98.2487 22.7321C98.8966 22.0843 99.2246 21.2961 99.2246 20.384H98.6246C98.6246 21.1359 98.3606 21.7717 97.8244 22.3079L98.2487 22.7321ZM99.2246 20.384C99.2246 19.4719 98.8966 18.6837 98.2487 18.0359L97.8244 18.4601C98.3606 18.9963 98.6246 19.6321 98.6246 20.384H99.2246ZM98.2487 18.0359C97.6008 17.388 96.8127 17.06 95.9006 17.06V17.66C96.6524 17.66 97.2883 17.924 97.8244 18.4601L98.2487 18.0359ZM95.9006 17.06C94.9884 17.06 94.2003 17.388 93.5524 18.0359L93.9767 18.4601C94.5128 17.924 95.1487 17.66 95.9006 17.66V17.06ZM93.5524 18.0359C92.9046 18.6837 92.5766 19.4719 92.5766 20.384H93.1766C93.1766 19.6321 93.4406 18.9963 93.9767 18.4601L93.5524 18.0359ZM92.5766 20.384C92.5766 21.2961 92.9046 22.0843 93.5524 22.7321L93.9767 22.3079C93.4406 21.7717 93.1766 21.1359 93.1766 20.384H92.5766Z" fill="white"/>
</g>
<mask id="mask0_261_113" style="mask-type:alpha" maskUnits="userSpaceOnUse" x="0" y="0" width="28" height="26">
<rect width="28" height="26" fill="url(#paint0_linear_261_113)"/>
</mask>
<g mask="url(#mask0_261_113)">
<path opacity="0.2" d="M6.976 23.072L6.68717 23.1531L6.69489 23.1806L6.70767 23.2062L6.976 23.072ZM1.72 4.352L1.42583 4.41083L1.42807 4.42207L1.43117 4.43309L1.72 4.352ZM1.768 4.136L2.008 4.316L2.008 4.316L1.768 4.136ZM7.216 4.088L7.38241 3.83838L7.38241 3.83838L7.216 4.088ZM7.312 4.208L7.60157 4.12957L7.59932 4.12128L7.59661 4.11313L7.312 4.208ZM10.12 14.576L9.83043 14.6544L10.0994 15.6476L10.4063 14.6655L10.12 14.576ZM13.36 4.208L13.0917 4.07383L13.0809 4.09545L13.0737 4.11852L13.36 4.208ZM13.456 4.112L13.6224 4.36161L13.6471 4.34514L13.6681 4.32413L13.456 4.112ZM18.016 4.112L17.8039 4.32413L17.8249 4.34514L17.8496 4.36161L18.016 4.112ZM18.112 4.208L18.3983 4.11833L18.3911 4.09536L18.3803 4.07383L18.112 4.208ZM21.352 14.552L21.0657 14.6417L21.3726 15.6213L21.6415 14.6306L21.352 14.552ZM24.16 4.208L23.8754 4.11313L23.8727 4.1212L23.8705 4.1294L24.16 4.208ZM24.256 4.088L24.0896 3.83838L24.0896 3.83838L24.256 4.088ZM29.776 4.352L30.0648 4.43309L30.076 4.39332V4.352H29.776ZM24.52 23.072L24.7883 23.2062L24.8011 23.1806L24.8088 23.1531L24.52 23.072ZM24.424 23.168L24.2576 22.9184L24.2329 22.9349L24.2119 22.9559L24.424 23.168ZM19.192 23.192L19.0256 23.4416L19.0256 23.4416L19.192 23.192ZM19.096 23.072L18.8111 23.1661L18.8114 23.1669L19.096 23.072ZM15.736 12.896L16.0209 12.8019L15.7339 11.933L15.4507 12.8032L15.736 12.896ZM12.424 23.072L12.6923 23.2062L12.7023 23.1861L12.7093 23.1648L12.424 23.072ZM12.328 23.168L12.1616 22.9184L12.1369 22.9349L12.1159 22.9559L12.328 23.168ZM7.072 23.168L7.28413 22.9559L7.26313 22.9349L7.23841 22.9184L7.072 23.168ZM1.96 4.28V3.98H1.56417L1.67117 4.36109L1.96 4.28ZM7.216 23L6.92717 23.0811L6.98863 23.3H7.216V23ZM12.184 23V23.3H12.4016L12.4692 23.0932L12.184 23ZM15.736 12.128L16.021 12.0343L15.735 11.1649L15.4508 12.0348L15.736 12.128ZM19.312 23L19.027 23.0937L19.0949 23.3H19.312V23ZM24.28 23V23.3H24.5074L24.5688 23.0811L24.28 23ZM29.536 4.28L29.8248 4.36109L29.9318 3.98H29.536V4.28ZM24.4 4.28V3.98H24.1706L24.1105 4.20138L24.4 4.28ZM21.376 15.416L21.0898 15.506L21.3972 16.4828L21.6655 15.4946L21.376 15.416ZM17.872 4.28L18.1582 4.18996L18.0921 3.98H17.872V4.28ZM13.6 4.28V3.98H13.3798L13.3138 4.19013L13.6 4.28ZM10.096 15.44L9.80644 15.5185L10.0748 16.5089L10.3822 15.5299L10.096 15.44ZM7.072 4.28L7.36156 4.20154L7.30153 3.98H7.072V4.28ZM7.26483 22.9909L2.00883 4.2709L1.43117 4.43309L6.68717 23.1531L7.26483 22.9909ZM2.01417 4.29317C2.01377 4.29113 2.014 4.29136 2.014 4.2935C2.014 4.29572 2.01375 4.29907 2.01286 4.30308C2.01196 4.3071 2.01069 4.31059 2.00945 4.31324C2.00823 4.31583 2.00745 4.31674 2.008 4.316L1.528 3.956C1.42764 4.08981 1.39347 4.24903 1.42583 4.41083L2.01417 4.29317ZM2.008 4.316C2.008 4.316 2.00799 4.31601 2.00798 4.31603C2.00796 4.31605 2.00794 4.31607 2.00791 4.31611C2.00786 4.31618 2.00777 4.31629 2.00765 4.31643C2.00742 4.31671 2.00707 4.31712 2.00659 4.31763C2.00562 4.31868 2.00418 4.32011 2.00224 4.32178C1.99819 4.32525 1.99277 4.32902 1.98616 4.33233C1.97181 4.33951 1.96102 4.34 1.96 4.34V3.74C1.78557 3.74 1.63266 3.81646 1.528 3.956L2.008 4.316ZM1.96 4.34H7.072V3.74H1.96V4.34ZM7.072 4.34C7.06205 4.34 7.05406 4.33825 7.04913 4.3366C7.04459 4.33509 7.04474 4.33438 7.04959 4.33761L7.38241 3.83838C7.29522 3.78026 7.19029 3.74 7.072 3.74V4.34ZM7.04959 4.33761C7.0511 4.33862 7.04728 4.33634 7.04174 4.32941C7.03591 4.32212 7.03073 4.31287 7.0274 4.30287L7.59661 4.11313C7.5566 3.99312 7.47775 3.90195 7.38241 3.83838L7.04959 4.33761ZM7.02243 4.28642L9.83043 14.6544L10.4096 14.4976L7.60157 4.12957L7.02243 4.28642ZM10.4063 14.6655L13.6463 4.29748L13.0737 4.11852L9.83366 14.4865L10.4063 14.6655ZM13.6283 4.34216C13.6187 4.36148 13.6092 4.37109 13.6081 4.37213C13.607 4.37329 13.6106 4.36948 13.6224 4.36161L13.2896 3.86238C13.2221 3.90741 13.1412 3.97483 13.0917 4.07383L13.6283 4.34216ZM13.6681 4.32413C13.6751 4.31718 13.6735 4.32067 13.6622 4.32633C13.6495 4.33267 13.6278 4.34 13.6 4.34V3.74C13.4444 3.74 13.3246 3.81917 13.2439 3.89987L13.6681 4.32413ZM13.6 4.34H17.872V3.74H13.6V4.34ZM17.872 4.34C17.8442 4.34 17.8225 4.33267 17.8098 4.32633C17.7985 4.32067 17.7969 4.31718 17.8039 4.32413L18.2281 3.89986C18.1474 3.81917 18.0276 3.74 17.872 3.74V4.34ZM17.8496 4.36161C17.8614 4.36948 17.865 4.37329 17.8639 4.37213C17.8628 4.37109 17.8533 4.36148 17.8437 4.34217L18.3803 4.07383C18.3308 3.97483 18.2499 3.90741 18.1824 3.86239L17.8496 4.36161ZM17.8257 4.29767L21.0657 14.6417L21.6383 14.4623L18.3983 4.11833L17.8257 4.29767ZM21.6415 14.6306L24.4495 4.28659L23.8705 4.1294L21.0625 14.4734L21.6415 14.6306ZM24.4446 4.30287C24.4413 4.31287 24.4361 4.32212 24.4303 4.32941C24.4247 4.33634 24.4209 4.33862 24.4224 4.33761L24.0896 3.83838C23.9942 3.90195 23.9154 3.99312 23.8754 4.11313L24.4446 4.30287ZM24.4224 4.33762C24.4273 4.33438 24.4274 4.33509 24.4229 4.3366C24.4179 4.33825 24.41 4.34 24.4 4.34V3.74C24.2817 3.74 24.1768 3.78026 24.0896 3.83838L24.4224 4.33762ZM24.4 4.34H29.536V3.74H24.4V4.34ZM29.536 4.34C29.5698 4.34 29.54 4.34824 29.5039 4.31213C29.4678 4.27603 29.476 4.24624 29.476 4.28H30.076C30.076 4.15376 30.0442 4.00397 29.9281 3.88787C29.812 3.77176 29.6622 3.74 29.536 3.74V4.34ZM29.476 4.28V4.352H30.076V4.28H29.476ZM29.4872 4.2709L24.2312 22.9909L24.8088 23.1531L30.0648 4.43309L29.4872 4.2709ZM24.2517 22.9378C24.2613 22.9185 24.2708 22.9089 24.2719 22.9079C24.273 22.9067 24.2694 22.9105 24.2576 22.9184L24.5904 23.4176C24.6579 23.3726 24.7388 23.3052 24.7883 23.2062L24.2517 22.9378ZM24.2119 22.9559C24.2049 22.9628 24.2065 22.9593 24.2178 22.9537C24.2305 22.9473 24.2522 22.94 24.28 22.94V23.54C24.4356 23.54 24.5554 23.4608 24.6361 23.3801L24.2119 22.9559ZM24.28 22.94H19.312V23.54H24.28V22.94ZM19.312 22.94C19.3449 22.94 19.3655 22.9479 19.3694 22.9495C19.3739 22.9513 19.3705 22.9505 19.3584 22.9424L19.0256 23.4416C19.0885 23.4836 19.1898 23.54 19.312 23.54V22.94ZM19.3584 22.9424C19.3569 22.9414 19.3607 22.9437 19.3663 22.9506C19.3721 22.9579 19.3773 22.9671 19.3806 22.9771L18.8114 23.1669C18.8514 23.2869 18.9302 23.3781 19.0256 23.4416L19.3584 22.9424ZM19.3809 22.9779L16.0209 12.8019L15.4511 12.9901L18.8111 23.1661L19.3809 22.9779ZM15.4507 12.8032L12.1387 22.9792L12.7093 23.1648L16.0213 12.9888L15.4507 12.8032ZM12.1557 22.9378C12.1653 22.9185 12.1748 22.9089 12.1759 22.9079C12.177 22.9067 12.1734 22.9105 12.1616 22.9184L12.4944 23.4176C12.5619 23.3726 12.6428 23.3052 12.6923 23.2062L12.1557 22.9378ZM12.1159 22.9559C12.1089 22.9628 12.1105 22.9593 12.1218 22.9537C12.1345 22.9473 12.1562 22.94 12.184 22.94V23.54C12.3396 23.54 12.4594 23.4608 12.5401 23.3801L12.1159 22.9559ZM12.184 22.94H7.216V23.54H12.184V22.94ZM7.216 22.94C7.24383 22.94 7.26548 22.9473 7.27816 22.9537C7.28948 22.9593 7.29109 22.9628 7.28413 22.9559L6.85987 23.3801C6.94057 23.4608 7.06037 23.54 7.216 23.54V22.94ZM7.23841 22.9184C7.22661 22.9105 7.22297 22.9067 7.22413 22.9079C7.22518 22.9089 7.23467 22.9185 7.24433 22.9378L6.70767 23.2062C6.75717 23.3052 6.83805 23.3726 6.90559 23.4176L7.23841 22.9184ZM1.67117 4.36109L6.92717 23.0811L7.50483 22.9189L2.24883 4.1989L1.67117 4.36109ZM7.216 23.3H12.184V22.7H7.216V23.3ZM12.4692 23.0932L16.0212 12.2212L15.4508 12.0348L11.8988 22.9068L12.4692 23.0932ZM15.451 12.2217L19.027 23.0937L19.597 22.9063L16.021 12.0343L15.451 12.2217ZM19.312 23.3H24.28V22.7H19.312V23.3ZM24.5688 23.0811L29.8248 4.36109L29.2472 4.1989L23.9912 22.9189L24.5688 23.0811ZM29.536 3.98H24.4V4.58H29.536V3.98ZM24.1105 4.20138L21.0865 15.3374L21.6655 15.4946L24.6895 4.35862L24.1105 4.20138ZM21.6622 15.326L18.1582 4.18996L17.5858 4.37004L21.0898 15.506L21.6622 15.326ZM17.872 3.98H13.6V4.58H17.872V3.98ZM13.3138 4.19013L9.80978 15.3501L10.3822 15.5299L13.8862 4.36987L13.3138 4.19013ZM10.3856 15.3615L7.36156 4.20154L6.78244 4.35846L9.80644 15.5185L10.3856 15.3615ZM7.072 3.98H1.96V4.58H7.072V3.98ZM33.1784 9.824L33.3228 10.0869L33.3241 10.0862L33.1784 9.824ZM40.4984 9.824L40.3511 10.0854L40.3539 10.0869L40.4984 9.824ZM43.2104 12.416L42.9541 12.572L42.9568 12.5763L43.2104 12.416ZM43.2104 19.64L42.9558 19.4813L42.9551 19.4824L43.2104 19.64ZM40.4984 22.232L40.3511 21.9706L40.3495 21.9715L40.4984 22.232ZM33.1784 22.256L33.0311 22.5174L33.0339 22.5189L33.1784 22.256ZM30.4424 19.664L30.1861 19.82L30.1888 19.8243L30.4424 19.664ZM30.4424 12.416L30.1878 12.2573L30.1871 12.2584L30.4424 12.416ZM30.6344 12.608L30.8909 12.7635L30.892 12.7618L30.6344 12.608ZM30.6344 19.472L30.3768 19.6258L30.3778 19.6275L30.6344 19.472ZM33.2264 22.016L33.0742 22.2746L33.0788 22.2772L33.2264 22.016ZM40.4504 22.016L40.5996 22.2763L40.6025 22.2746L40.4504 22.016ZM43.0424 19.472L43.2989 19.6275L43.3 19.6258L43.0424 19.472ZM43.0424 12.608L42.7848 12.7618L42.7858 12.7635L43.0424 12.608ZM40.4504 10.064L40.2983 10.3226L40.3011 10.3242L40.4504 10.064ZM33.2264 10.064L33.3756 10.3242L33.3768 10.3235L33.2264 10.064ZM39.7304 14.384L39.4689 14.5311L39.4709 14.5346L39.7304 14.384ZM39.7304 17.672L39.4689 17.5249L39.7304 17.672ZM38.5304 18.896L38.681 19.1554L38.6835 19.154L38.5304 18.896ZM35.1464 18.872L34.9932 19.13L35.1464 18.872ZM33.9464 17.672L33.6849 17.8191L33.6869 17.8226L33.9464 17.672ZM33.9464 14.408L34.2058 14.5587L34.2078 14.5551L33.9464 14.408ZM35.1464 13.184L35.2995 13.442L35.1464 13.184ZM38.5304 13.184L38.3735 13.44L38.3833 13.4455L38.5304 13.184ZM39.0104 13.856L38.7982 14.0682L38.8011 14.0709L39.0104 13.856ZM35.2904 13.376L35.1425 13.115L35.1387 13.1172L35.2904 13.376ZM34.1624 14.48L33.9074 14.3217L33.9036 14.3283L34.1624 14.48ZM34.1624 17.576L33.9012 17.724L33.9075 17.7342L34.1624 17.576ZM35.2904 18.68L35.1386 18.9388L35.1425 18.941L35.2904 18.68ZM39.0344 18.2L39.2465 18.4121L39.0344 18.2ZM33.3241 10.0862C34.4323 9.47057 35.6063 9.164 36.8504 9.164V8.564C35.5025 8.564 34.2285 8.89743 33.0327 9.56175L33.3241 10.0862ZM36.8504 9.164C38.0945 9.164 39.2598 9.47053 40.3511 10.0854L40.6456 9.56262C39.465 8.89746 38.1983 8.564 36.8504 8.564V9.164ZM40.3539 10.0869C41.4441 10.6858 42.3095 11.5129 42.9541 12.572L43.4666 12.26C42.7673 11.1111 41.8247 10.2102 40.6428 9.56106L40.3539 10.0869ZM42.9568 12.5763C43.6139 13.6154 43.9424 14.7596 43.9424 16.016H44.5424C44.5424 14.6484 44.1829 13.3926 43.4639 12.2557L42.9568 12.5763ZM43.9424 16.016C43.9424 17.2724 43.6138 18.4254 42.9558 19.4813L43.465 19.7987C44.1829 18.6466 44.5424 17.3836 44.5424 16.016H43.9424ZM42.9551 19.4824C42.3103 20.5263 41.4438 21.355 40.3511 21.9706L40.6456 22.4934C41.8249 21.829 42.7664 20.9297 43.4656 19.7976L42.9551 19.4824ZM40.3495 21.9715C39.2757 22.5852 38.1111 22.892 36.8504 22.892V23.492C38.2136 23.492 39.4811 23.1588 40.6472 22.4925L40.3495 21.9715ZM36.8504 22.892C35.5882 22.892 34.414 22.5924 33.3228 21.9931L33.0339 22.5189C34.2148 23.1676 35.4885 23.492 36.8504 23.492V22.892ZM33.3256 21.9946C32.2323 21.3787 31.357 20.5491 30.6959 19.5037L30.1888 19.8243C30.9037 20.9549 31.8525 21.8533 33.0311 22.5174L33.3256 21.9946ZM30.6986 19.508C30.0561 18.4524 29.7344 17.2906 29.7344 16.016H29.1344C29.1344 17.3974 29.4847 18.6676 30.1861 19.82L30.6986 19.508ZM29.7344 16.016C29.7344 14.7582 30.0557 13.613 30.6976 12.5736L30.1871 12.2584C29.4851 13.395 29.1344 14.6498 29.1344 16.016H29.7344ZM30.697 12.5747C31.3579 11.5141 32.232 10.6861 33.3228 10.0869L33.0339 9.56106C31.8527 10.2099 30.9028 11.1099 30.1878 12.2573L30.697 12.5747ZM30.3778 12.4525C29.7099 13.5546 29.3744 14.7443 29.3744 16.016H29.9744C29.9744 14.8557 30.2789 13.7734 30.8909 12.7635L30.3778 12.4525ZM29.3744 16.016C29.3744 17.3029 29.7094 18.5079 30.3768 19.6258L30.892 19.3182C30.2793 18.2921 29.9744 17.1931 29.9744 16.016H29.3744ZM30.3778 19.6275C31.0442 20.7269 31.9444 21.61 33.0743 22.2746L33.3785 21.7574C32.3323 21.142 31.5046 20.3291 30.8909 19.3165L30.3778 19.6275ZM33.0788 22.2772C34.2294 22.9275 35.4885 23.252 36.8504 23.252V22.652C35.5882 22.652 34.4314 22.3525 33.374 21.7548L33.0788 22.2772ZM36.8504 23.252C38.2122 23.252 39.4641 22.9275 40.5996 22.2762L40.3011 21.7558C39.2607 22.3525 38.1125 22.652 36.8504 22.652V23.252ZM40.6025 22.2746C41.7323 21.61 42.6326 20.7269 43.2989 19.6275L42.7858 19.3165C42.1722 20.3291 41.3444 21.142 40.2983 21.7574L40.6025 22.2746ZM43.3 19.6258C43.9673 18.5079 44.3024 17.3029 44.3024 16.016H43.7024C43.7024 17.1931 43.3974 18.2921 42.7848 19.3182L43.3 19.6258ZM44.3024 16.016C44.3024 14.7443 43.9669 13.5546 43.2989 12.4525L42.7858 12.7635C43.3979 13.7734 43.7024 14.8557 43.7024 16.016H44.3024ZM43.3 12.4542C42.6335 11.3378 41.7321 10.4532 40.5996 9.80376L40.3011 10.3242C41.3447 10.9228 42.1713 11.7342 42.7848 12.7618L43.3 12.4542ZM40.6025 9.80542C39.4665 9.1372 38.2137 8.804 36.8504 8.804V9.404C38.1111 9.404 39.2582 9.71079 40.2983 10.3226L40.6025 9.80542ZM36.8504 8.804C35.4871 8.804 34.227 9.13719 33.0759 9.80446L33.3768 10.3235C34.4338 9.71081 35.5897 9.404 36.8504 9.404V8.804ZM33.0771 9.80376C31.9447 10.4532 31.0433 11.3378 30.3768 12.4542L30.892 12.7618C31.5055 11.7342 32.3321 10.9228 33.3756 10.3242L33.0771 9.80376ZM39.4709 14.5346C39.7315 14.9834 39.8624 15.4751 39.8624 16.016H40.4624C40.4624 15.3729 40.3053 14.7766 39.9898 14.2334L39.4709 14.5346ZM39.8624 16.016C39.8624 16.5569 39.7314 17.0582 39.4689 17.5249L39.9918 17.8191C40.3053 17.2618 40.4624 16.6591 40.4624 16.016H39.8624ZM39.4689 17.5249C39.207 17.9905 38.8447 18.3605 38.3772 18.638L38.6835 19.154C39.2401 18.8235 39.6777 18.3775 39.9918 17.8191L39.4689 17.5249ZM38.3797 18.6366C37.9335 18.8957 37.4263 19.028 36.8504 19.028V19.628C37.5225 19.628 38.1353 19.4723 38.681 19.1554L38.3797 18.6366ZM36.8504 19.028C36.2776 19.028 35.7629 18.8892 35.2995 18.614L34.9932 19.13C35.5538 19.4628 36.1752 19.628 36.8504 19.628V19.028ZM35.2995 18.614C34.8298 18.3351 34.4671 17.9714 34.2058 17.5214L33.6869 17.8226C34.0016 18.3646 34.439 18.8009 34.9932 19.13L35.2995 18.614ZM34.2078 17.5249C33.9453 17.0582 33.8144 16.5569 33.8144 16.016H33.2144C33.2144 16.6591 33.3714 17.2618 33.6849 17.8191L34.2078 17.5249ZM33.8144 16.016C33.8144 15.4927 33.9445 15.0087 34.2058 14.5586L33.6869 14.2574C33.3722 14.7993 33.2144 15.3873 33.2144 16.016H33.8144ZM34.2078 14.5551C34.4697 14.0895 34.8321 13.7195 35.2995 13.442L34.9932 12.926C34.4367 13.2565 33.999 13.7025 33.6849 14.2609L34.2078 14.5551ZM35.2995 13.442C35.7629 13.1668 36.2776 13.028 36.8504 13.028V12.428C36.1752 12.428 35.5538 12.5932 34.9932 12.926L35.2995 13.442ZM36.8504 13.028C37.4232 13.028 37.9282 13.1668 38.3736 13.4398L38.6871 12.9282C38.1405 12.5932 37.5255 12.428 36.8504 12.428V13.028ZM38.3833 13.4455C38.8474 13.7065 39.2078 14.067 39.4689 14.5311L39.9918 14.2369C39.6769 13.677 39.2373 13.2375 38.6775 12.9225L38.3833 13.4455ZM39.2225 13.6439C38.5734 12.9948 37.7768 12.668 36.8504 12.668V13.268C37.62 13.268 38.2633 13.5332 38.7982 14.0681L39.2225 13.6439ZM36.8504 12.668C36.2393 12.668 35.6683 12.817 35.1425 13.115L35.4383 13.637C35.8725 13.391 36.3414 13.268 36.8504 13.268V12.668ZM35.1387 13.1172C34.6319 13.4142 34.2208 13.817 33.9075 14.3218L34.4173 14.6382C34.68 14.215 35.0208 13.8818 35.4421 13.6348L35.1387 13.1172ZM33.9036 14.3283C33.6035 14.8402 33.4544 15.405 33.4544 16.016H34.0544C34.0544 15.507 34.1773 15.0478 34.4212 14.6317L33.9036 14.3283ZM33.4544 16.016C33.4544 16.627 33.6034 17.1981 33.9014 17.7239L34.4234 17.4281C34.1773 16.9939 34.0544 16.525 34.0544 16.016H33.4544ZM33.9075 17.7342C34.2208 18.239 34.6319 18.6418 35.1387 18.9388L35.4421 18.4212C35.0208 18.1742 34.68 17.841 34.4173 17.4178L33.9075 17.7342ZM35.1425 18.941C35.6683 19.239 36.2393 19.388 36.8504 19.388V18.788C36.3414 18.788 35.8725 18.665 35.4383 18.419L35.1425 18.941ZM36.8504 19.388C37.7911 19.388 38.5963 19.0624 39.2465 18.4121L38.8222 17.9879C38.2885 18.5216 37.6377 18.788 36.8504 18.788V19.388ZM39.2465 18.4121C39.8967 17.7619 40.2224 16.9567 40.2224 16.016H39.6224C39.6224 16.8033 39.356 17.4541 38.8222 17.9879L39.2465 18.4121ZM40.2224 16.016C40.2224 15.087 39.8856 14.2895 39.2197 13.6411L38.8011 14.0709C39.3511 14.6065 39.6224 15.249 39.6224 16.016H40.2224ZM48.9282 23.072L48.6394 23.1531L48.6471 23.1806L48.6599 23.2062L48.9282 23.072ZM43.6722 4.352L43.378 4.41083L43.3803 4.42207L43.3834 4.43309L43.6722 4.352ZM43.7202 4.136L43.9602 4.316V4.316L43.7202 4.136ZM49.1682 4.088L49.3346 3.83838L49.3346 3.83838L49.1682 4.088ZM49.2642 4.208L49.5538 4.12957L49.5515 4.12128L49.5488 4.11313L49.2642 4.208ZM52.0722 14.576L51.7826 14.6544L52.0516 15.6476L52.3585 14.6655L52.0722 14.576ZM55.3122 4.208L55.0439 4.07383L55.0331 4.09545L55.0258 4.11852L55.3122 4.208ZM55.4082 4.112L55.5746 4.36161L55.5993 4.34514L55.6203 4.32413L55.4082 4.112ZM59.9682 4.112L59.7561 4.32413L59.7771 4.34514L59.8018 4.36161L59.9682 4.112ZM60.0642 4.208L60.3505 4.11833L60.3433 4.09536L60.3325 4.07383L60.0642 4.208ZM63.3042 14.552L63.0179 14.6417L63.3248 15.6213L63.5937 14.6306L63.3042 14.552ZM66.1122 4.208L65.8276 4.11313L65.8249 4.1212L65.8227 4.1294L66.1122 4.208ZM66.2082 4.088L66.0418 3.83838V3.83838L66.2082 4.088ZM71.7282 4.352L72.017 4.43309L72.0282 4.39332V4.352H71.7282ZM66.4722 23.072L66.7405 23.2062L66.7533 23.1806L66.761 23.1531L66.4722 23.072ZM66.3762 23.168L66.2098 22.9184L66.1851 22.9349L66.1641 22.9559L66.3762 23.168ZM61.1442 23.192L60.9778 23.4416L60.9778 23.4416L61.1442 23.192ZM61.0482 23.072L60.7633 23.1661L60.7636 23.1669L61.0482 23.072ZM57.6882 12.896L57.9731 12.8019L57.6861 11.933L57.4029 12.8032L57.6882 12.896ZM54.3762 23.072L54.6445 23.2062L54.6545 23.1861L54.6615 23.1648L54.3762 23.072ZM54.2802 23.168L54.1138 22.9184L54.0891 22.9349L54.0681 22.9559L54.2802 23.168ZM49.0242 23.168L49.2363 22.9559L49.2153 22.9349L49.1906 22.9184L49.0242 23.168ZM43.9122 4.28V3.98H43.5164L43.6234 4.36109L43.9122 4.28ZM49.1682 23L48.8794 23.0811L48.9408 23.3H49.1682V23ZM54.1362 23V23.3H54.3538L54.4214 23.0932L54.1362 23ZM57.6882 12.128L57.9732 12.0343L57.6872 11.1649L57.403 12.0348L57.6882 12.128ZM61.2642 23L60.9792 23.0937L61.0471 23.3H61.2642V23ZM66.2322 23V23.3H66.4596L66.521 23.0811L66.2322 23ZM71.4882 4.28L71.777 4.36109L71.884 3.98H71.4882V4.28ZM66.3522 4.28V3.98H66.1228L66.0627 4.20138L66.3522 4.28ZM63.3282 15.416L63.042 15.506L63.3494 16.4828L63.6177 15.4946L63.3282 15.416ZM59.8242 4.28L60.1104 4.18996L60.0443 3.98H59.8242V4.28ZM55.5522 4.28V3.98H55.3319L55.266 4.19013L55.5522 4.28ZM52.0482 15.44L51.7586 15.5185L52.027 16.5089L52.3344 15.5299L52.0482 15.44ZM49.0242 4.28L49.3137 4.20154L49.2537 3.98H49.0242V4.28ZM49.217 22.9909L43.961 4.2709L43.3834 4.43309L48.6394 23.1531L49.217 22.9909ZM43.9664 4.29317C43.966 4.29113 43.9662 4.29136 43.9662 4.2935C43.9662 4.29572 43.9659 4.29907 43.965 4.30308C43.9641 4.3071 43.9629 4.31059 43.9616 4.31324C43.9604 4.31583 43.9596 4.31674 43.9602 4.316L43.4802 3.956C43.3798 4.08981 43.3457 4.24903 43.378 4.41083L43.9664 4.29317ZM43.9602 4.316C43.9602 4.316 43.9602 4.31601 43.9602 4.31603C43.9602 4.31605 43.9601 4.31607 43.9601 4.31611C43.96 4.31618 43.96 4.31629 43.9598 4.31643C43.9596 4.31671 43.9593 4.31712 43.9588 4.31763C43.9578 4.31868 43.9564 4.32011 43.9544 4.32178C43.9504 4.32525 43.945 4.32902 43.9384 4.33233C43.924 4.33951 43.9132 4.34 43.9122 4.34V3.74C43.7378 3.74 43.5848 3.81646 43.4802 3.956L43.9602 4.316ZM43.9122 4.34H49.0242V3.74H43.9122V4.34ZM49.0242 4.34C49.0142 4.34 49.0062 4.33825 49.0013 4.3366C48.9968 4.33509 48.9969 4.33438 49.0018 4.33761L49.3346 3.83838C49.2474 3.78026 49.1425 3.74 49.0242 3.74V4.34ZM49.0018 4.33761C49.0033 4.33862 48.9995 4.33634 48.9939 4.32941C48.9881 4.32212 48.9829 4.31287 48.9796 4.30287L49.5488 4.11313C49.5088 3.99312 49.4299 3.90195 49.3346 3.83838L49.0018 4.33761ZM48.9746 4.28642L51.7826 14.6544L52.3618 14.4976L49.5538 4.12957L48.9746 4.28642ZM52.3585 14.6655L55.5985 4.29748L55.0258 4.11852L51.7858 14.4865L52.3585 14.6655ZM55.5805 4.34216C55.5709 4.36148 55.5614 4.37109 55.5603 4.37213C55.5592 4.37329 55.5628 4.36948 55.5746 4.36161L55.2418 3.86238C55.1742 3.90741 55.0934 3.97483 55.0439 4.07383L55.5805 4.34216ZM55.6203 4.32413C55.6273 4.31718 55.6257 4.32067 55.6143 4.32633C55.6017 4.33267 55.58 4.34 55.5522 4.34V3.74C55.3966 3.74 55.2768 3.81917 55.1961 3.89987L55.6203 4.32413ZM55.5522 4.34H59.8242V3.74H55.5522V4.34ZM59.8242 4.34C59.7964 4.34 59.7747 4.33267 59.762 4.32633C59.7507 4.32067 59.7491 4.31718 59.7561 4.32413L60.1803 3.89986C60.0996 3.81917 59.9798 3.74 59.8242 3.74V4.34ZM59.8018 4.36161C59.8136 4.36948 59.8172 4.37329 59.8161 4.37213C59.815 4.37109 59.8055 4.36148 59.7959 4.34217L60.3325 4.07383C60.283 3.97483 60.2021 3.90741 60.1346 3.86239L59.8018 4.36161ZM59.7779 4.29767L63.0179 14.6417L63.5905 14.4623L60.3505 4.11833L59.7779 4.29767ZM63.5937 14.6306L66.4017 4.28659L65.8227 4.1294L63.0147 14.4734L63.5937 14.6306ZM66.3968 4.30287C66.3935 4.31287 66.3883 4.32212 66.3824 4.32941C66.3769 4.33634 66.3731 4.33862 66.3746 4.33761L66.0418 3.83838C65.9464 3.90195 65.8676 3.99312 65.8276 4.11313L66.3968 4.30287ZM66.3746 4.33762C66.3794 4.33438 66.3796 4.33509 66.3751 4.3366C66.3701 4.33825 66.3621 4.34 66.3522 4.34V3.74C66.2339 3.74 66.129 3.78026 66.0418 3.83838L66.3746 4.33762ZM66.3522 4.34H71.4882V3.74H66.3522V4.34ZM71.4882 4.34C71.5219 4.34 71.4922 4.34824 71.4561 4.31213C71.42 4.27603 71.4282 4.24624 71.4282 4.28H72.0282C72.0282 4.15376 71.9964 4.00397 71.8803 3.88787C71.7642 3.77176 71.6144 3.74 71.4882 3.74V4.34ZM71.4282 4.28V4.352H72.0282V4.28H71.4282ZM71.4394 4.2709L66.1834 22.9909L66.761 23.1531L72.017 4.43309L71.4394 4.2709ZM66.2039 22.9378C66.2135 22.9185 66.223 22.9089 66.2241 22.9079C66.2252 22.9067 66.2216 22.9105 66.2098 22.9184L66.5426 23.4176C66.6101 23.3726 66.691 23.3052 66.7405 23.2062L66.2039 22.9378ZM66.1641 22.9559C66.1571 22.9628 66.1587 22.9593 66.17 22.9537C66.1827 22.9473 66.2044 22.94 66.2322 22.94V23.54C66.3878 23.54 66.5076 23.4608 66.5883 23.3801L66.1641 22.9559ZM66.2322 22.94H61.2642V23.54H66.2322V22.94ZM61.2642 22.94C61.2971 22.94 61.3177 22.9479 61.3216 22.9495C61.3261 22.9513 61.3227 22.9505 61.3106 22.9424L60.9778 23.4416C61.0407 23.4836 61.142 23.54 61.2642 23.54V22.94ZM61.3106 22.9424C61.3091 22.9414 61.3129 22.9437 61.3184 22.9506C61.3243 22.9579 61.3295 22.9671 61.3328 22.9771L60.7636 23.1669C60.8036 23.2869 60.8824 23.3781 60.9778 23.4416L61.3106 22.9424ZM61.3331 22.9779L57.9731 12.8019L57.4033 12.9901L60.7633 23.1661L61.3331 22.9779ZM57.4029 12.8032L54.0909 22.9792L54.6615 23.1648L57.9735 12.9888L57.4029 12.8032ZM54.1079 22.9378C54.1175 22.9185 54.127 22.9089 54.1281 22.9079C54.1292 22.9067 54.1256 22.9105 54.1138 22.9184L54.4466 23.4176C54.5141 23.3726 54.595 23.3052 54.6445 23.2062L54.1079 22.9378ZM54.0681 22.9559C54.0611 22.9628 54.0627 22.9593 54.074 22.9537C54.0867 22.9473 54.1084 22.94 54.1362 22.94V23.54C54.2918 23.54 54.4116 23.4608 54.4923 23.3801L54.0681 22.9559ZM54.1362 22.94H49.1682V23.54H54.1362V22.94ZM49.1682 22.94C49.196 22.94 49.2177 22.9473 49.2304 22.9537C49.2417 22.9593 49.2433 22.9628 49.2363 22.9559L48.8121 23.3801C48.8928 23.4608 49.0126 23.54 49.1682 23.54V22.94ZM49.1906 22.9184C49.1788 22.9105 49.1752 22.9067 49.1763 22.9079C49.1774 22.9089 49.1869 22.9185 49.1965 22.9378L48.6599 23.2062C48.7094 23.3052 48.7902 23.3726 48.8578 23.4176L49.1906 22.9184ZM43.6234 4.36109L48.8794 23.0811L49.457 22.9189L44.201 4.1989L43.6234 4.36109ZM49.1682 23.3H54.1362V22.7H49.1682V23.3ZM54.4214 23.0932L57.9734 12.2212L57.403 12.0348L53.851 22.9068L54.4214 23.0932ZM57.4032 12.2217L60.9792 23.0937L61.5492 22.9063L57.9732 12.0343L57.4032 12.2217ZM61.2642 23.3H66.2322V22.7H61.2642V23.3ZM66.521 23.0811L71.777 4.36109L71.1994 4.1989L65.9434 22.9189L66.521 23.0811ZM71.4882 3.98H66.3522V4.58H71.4882V3.98ZM66.0627 4.20138L63.0387 15.3374L63.6177 15.4946L66.6417 4.35862L66.0627 4.20138ZM63.6144 15.326L60.1104 4.18996L59.538 4.37004L63.042 15.506L63.6144 15.326ZM59.8242 3.98H55.5522V4.58H59.8242V3.98ZM55.266 4.19013L51.762 15.3501L52.3344 15.5299L55.8384 4.36987L55.266 4.19013ZM52.3377 15.3615L49.3137 4.20154L48.7346 4.35846L51.7586 15.5185L52.3377 15.3615ZM49.0242 3.98H43.9122V4.58H49.0242V3.98ZM75.0766 16.208H75.3766V16.1944L75.3753 16.1809L75.0766 16.208ZM73.9966 4.304L74.2953 4.27689L74.2932 4.25377L74.2876 4.23124L73.9966 4.304ZM74.0446 4.136L74.2567 4.34813L74.2718 4.33306L74.2846 4.316L74.0446 4.136ZM79.7566 4.112L79.5444 4.32413L79.5654 4.34514L79.5902 4.36161L79.7566 4.112ZM79.8286 4.304L80.1273 4.33111L80.1286 4.31758V4.304H79.8286ZM78.7486 16.208L78.4498 16.1809L78.4486 16.1944V16.208H78.7486ZM78.6766 16.376L78.843 16.6256L78.8677 16.6091L78.8887 16.5881L78.6766 16.376ZM75.1486 16.376L74.9364 16.5881L74.9574 16.6091L74.9822 16.6256L75.1486 16.376ZM74.2366 4.28V3.98H73.9081L73.9378 4.30711L74.2366 4.28ZM75.3166 16.184L75.0178 16.2111L75.0425 16.484H75.3166V16.184ZM78.5086 16.184V16.484H78.7826L78.8073 16.2111L78.5086 16.184ZM79.5886 4.28L79.8873 4.30711L79.917 3.98H79.5886V4.28ZM74.0686 22.016L73.8091 22.1667L73.8128 22.1728L74.0686 22.016ZM74.0686 18.752L73.8127 18.5952L73.8091 18.6014L74.0686 18.752ZM75.2686 17.576L75.4193 17.8355L75.4253 17.8318L75.2686 17.576ZM78.5326 17.576L78.3758 17.8319L78.3819 17.8354L78.5326 17.576ZM79.7086 18.752L79.4491 18.9027L79.4528 18.9088L79.7086 18.752ZM79.7086 22.016L79.4527 21.8592L79.4491 21.8654L79.7086 22.016ZM78.5326 23.192L78.3819 22.9325L78.3758 22.9362L78.5326 23.192ZM75.2686 23.192L75.4254 22.9361L75.4192 22.9326L75.2686 23.192ZM74.7646 22.52L74.9767 22.3079L74.7646 22.52ZM79.0366 22.52L79.2487 22.7321L79.0366 22.52ZM79.0366 18.248L79.2487 18.0359L79.0366 18.248ZM74.7646 18.248L74.9767 18.4601L74.7646 18.248ZM75.3753 16.1809L74.2953 4.27689L73.6978 4.33111L74.7778 16.2351L75.3753 16.1809ZM74.2876 4.23124C74.2906 4.24339 74.2933 4.26738 74.285 4.29642C74.2769 4.32501 74.2627 4.34209 74.2567 4.34813L73.8324 3.92387C73.7126 4.04373 73.6631 4.20695 73.7055 4.37676L74.2876 4.23124ZM74.2846 4.316C74.2846 4.316 74.2846 4.31601 74.2845 4.31603C74.2845 4.31605 74.2845 4.31607 74.2845 4.31611C74.2844 4.31618 74.2843 4.31629 74.2842 4.31643C74.284 4.31671 74.2836 4.31712 74.2831 4.31763C74.2822 4.31868 74.2807 4.32011 74.2788 4.32178C74.2748 4.32525 74.2693 4.32902 74.2627 4.33233C74.2484 4.33951 74.2376 4.34 74.2366 4.34V3.74C74.0621 3.74 73.9092 3.81646 73.8046 3.956L74.2846 4.316ZM74.2366 4.34H79.5886V3.74H74.2366V4.34ZM79.5886 4.34C79.582 4.34 79.5716 4.33855 79.5604 4.33374C79.5495 4.32909 79.5443 4.32404 79.5444 4.32413L79.9687 3.89986C79.8682 3.79939 79.7373 3.74 79.5886 3.74V4.34ZM79.5902 4.36161C79.5741 4.35089 79.5553 4.33235 79.5422 4.30616C79.5298 4.28122 79.5286 4.26168 79.5286 4.256H80.1286C80.1286 4.10461 80.0646 3.95683 79.923 3.86239L79.5902 4.36161ZM79.5286 4.256V4.304H80.1286V4.256H79.5286ZM79.5298 4.27689L78.4498 16.1809L79.0473 16.2351L80.1273 4.33111L79.5298 4.27689ZM78.4486 16.208C78.4486 16.2015 78.45 16.191 78.4548 16.1798C78.4595 16.169 78.4645 16.1638 78.4644 16.1639L78.8887 16.5881C78.9892 16.4877 79.0486 16.3568 79.0486 16.208H78.4486ZM78.5102 16.1264C78.5122 16.125 78.5146 16.124 78.5162 16.1235C78.5175 16.1232 78.5154 16.124 78.5086 16.124V16.724C78.6251 16.724 78.7404 16.694 78.843 16.6256L78.5102 16.1264ZM78.5086 16.124H75.3166V16.724H78.5086V16.124ZM75.3166 16.124C75.3097 16.124 75.3077 16.1232 75.309 16.1235C75.3105 16.124 75.3129 16.125 75.315 16.1264L74.9822 16.6256C75.0848 16.694 75.2001 16.724 75.3166 16.724V16.124ZM75.3607 16.1639C75.3606 16.1638 75.3657 16.169 75.3703 16.1798C75.3751 16.191 75.3766 16.2015 75.3766 16.208H74.7766C74.7766 16.3568 74.836 16.4877 74.9364 16.5881L75.3607 16.1639ZM73.9378 4.30711L75.0178 16.2111L75.6153 16.1569L74.5353 4.25289L73.9378 4.30711ZM75.3166 16.484H78.5086V15.884H75.3166V16.484ZM78.8073 16.2111L79.8873 4.30711L79.2898 4.25289L78.2098 16.1569L78.8073 16.2111ZM79.5886 3.98H74.2366V4.58H79.5886V3.98ZM74.328 21.8654C74.0675 21.4166 73.9366 20.9249 73.9366 20.384H73.3366C73.3366 21.0271 73.4937 21.6234 73.8091 22.1666L74.328 21.8654ZM73.9366 20.384C73.9366 19.8431 74.0675 19.3514 74.328 18.9026L73.8091 18.6014C73.4937 19.1446 73.3366 19.7409 73.3366 20.384H73.9366ZM74.3243 18.9088C74.6027 18.4545 74.9669 18.0981 75.4192 17.8354L75.1179 17.3166C74.5783 17.6299 74.1424 18.0575 73.8128 18.5952L74.3243 18.9088ZM75.4253 17.8318C75.8733 17.5572 76.3629 17.42 76.9006 17.42V16.82C76.2543 16.82 75.6558 16.9868 75.1118 17.3202L75.4253 17.8318ZM76.9006 17.42C77.4383 17.42 77.9278 17.5572 78.3758 17.8318L78.6893 17.3202C78.1453 16.9868 77.5469 16.82 76.9006 16.82V17.42ZM78.3819 17.8354C78.8328 18.0972 79.1873 18.4517 79.4491 18.9026L79.968 18.6014C79.6538 18.0603 79.2243 17.6308 78.6832 17.3166L78.3819 17.8354ZM79.4528 18.9088C79.7273 19.3567 79.8646 19.8463 79.8646 20.384H80.4646C80.4646 19.7377 80.2978 19.1393 79.9643 18.5952L79.4528 18.9088ZM79.8646 20.384C79.8646 20.9217 79.7273 21.4113 79.4528 21.8592L79.9643 22.1728C80.2978 21.6287 80.4646 21.0303 80.4646 20.384H79.8646ZM79.4491 21.8654C79.1873 22.3163 78.8328 22.6708 78.3819 22.9326L78.6832 23.4514C79.2243 23.1372 79.6538 22.7077 79.968 22.1666L79.4491 21.8654ZM78.3758 22.9362C77.9278 23.2108 77.4383 23.348 76.9006 23.348V23.948C77.5469 23.948 78.1453 23.7812 78.6893 23.4478L78.3758 22.9362ZM76.9006 23.348C76.3629 23.348 75.8733 23.2108 75.4253 22.9362L75.1118 23.4478C75.6558 23.7812 76.2543 23.948 76.9006 23.948V23.348ZM75.4192 22.9326C74.9669 22.6699 74.6027 22.3135 74.3243 21.8592L73.8128 22.1728C74.1424 22.7105 74.5783 23.1381 75.1179 23.4514L75.4192 22.9326ZM74.5524 22.7321C75.2003 23.38 75.9884 23.708 76.9006 23.708V23.108C76.1487 23.108 75.5128 22.844 74.9767 22.3079L74.5524 22.7321ZM76.9006 23.708C77.8127 23.708 78.6008 23.38 79.2487 22.7321L78.8244 22.3079C78.2883 22.844 77.6524 23.108 76.9006 23.108V23.708ZM79.2487 22.7321C79.8966 22.0843 80.2246 21.2961 80.2246 20.384H79.6246C79.6246 21.1359 79.3606 21.7717 78.8244 22.3079L79.2487 22.7321ZM80.2246 20.384C80.2246 19.4719 79.8966 18.6837 79.2487 18.0359L78.8244 18.4601C79.3606 18.9963 79.6246 19.6321 79.6246 20.384H80.2246ZM79.2487 18.0359C78.6008 17.388 77.8127 17.06 76.9006 17.06V17.66C77.6524 17.66 78.2883 17.924 78.8244 18.4601L79.2487 18.0359ZM76.9006 17.06C75.9884 17.06 75.2003 17.388 74.5524 18.0359L74.9767 18.4601C75.5128 17.924 76.1487 17.66 76.9006 17.66V17.06ZM74.5524 18.0359C73.9046 18.6837 73.5766 19.4719 73.5766 20.384H74.1766C74.1766 19.6321 74.4406 18.9963 74.9767 18.4601L74.5524 18.0359ZM73.5766 20.384C73.5766 21.2961 73.9046 22.0843 74.5524 22.7321L74.9767 22.3079C74.4406 21.7717 74.1766 21.1359 74.1766 20.384H73.5766Z" fill="white"/>
</g>
<defs>
<linearGradient id="paint0_linear_261_113" x1="0" y1="13" x2="28" y2="13" gradientUnits="userSpaceOnUse">
<stop stop-color="white"/>
<stop offset="1" stop-color="white" stop-opacity="0"/>
</linearGradient>
</defs>
</svg>
