<svg width="25" height="26" viewBox="0 0 25 26" fill="none" xmlns="http://www.w3.org/2000/svg">
<path d="M12.0668 0.87187L11.795 1.13339V3.59169C11.795 5.68386 11.8159 6.07092 11.9622 6.20691C12.2444 6.48935 12.6207 6.53119 12.9239 6.30105L13.2061 6.09184L13.2375 3.63354C13.2584 1.40537 13.2479 1.15431 13.0807 0.955557C12.7671 0.589427 12.3699 0.558044 12.0668 0.87187Z" fill="white"/>
<path d="M3.73596 4.28211C3.47464 4.42856 3.40148 4.86792 3.57917 5.20266C3.79868 5.63156 6.53728 8.24677 6.85086 8.32C7.1749 8.40369 7.65572 8.0794 7.69753 7.74465C7.7498 7.39944 7.34214 6.8764 5.91012 5.45372C4.76033 4.31349 4.57218 4.1775 4.2586 4.1775C4.06 4.1775 3.83004 4.2298 3.73596 4.28211Z" fill="white"/>
<path d="M18.7774 5.81985C17.868 6.72995 17.0945 7.57728 17.0631 7.70281C16.9273 8.24677 17.4081 8.75935 17.9307 8.62336C18.307 8.52922 21.2756 5.61064 21.4742 5.1399C21.5892 4.87838 21.5996 4.75285 21.5055 4.56455C21.3383 4.25073 21.2129 4.1775 20.7948 4.1775C20.4707 4.1775 20.2721 4.33441 18.7774 5.81985Z" fill="white"/>
<path d="M11.3142 8.66521C10.0076 9.0418 8.92049 9.95189 8.32469 11.1549C7.9902 11.8453 7.97975 11.9081 7.97975 13.1738C7.97975 14.4396 7.9902 14.5024 8.32469 15.1928C9.22362 17.0234 11.3037 18.1114 13.2375 17.7766C14.9412 17.4837 16.3001 16.3644 16.875 14.7848C17.1259 14.1049 17.1468 13.9061 17.105 12.9437C17.0736 11.9813 17.0318 11.793 16.7182 11.1549C16.0806 9.87867 14.7949 8.88488 13.3838 8.58152C12.6312 8.42461 12.0772 8.44553 11.3142 8.66521ZM13.6033 10.203C14.7531 10.59 15.6625 11.9185 15.6625 13.1948C15.6625 13.7387 15.5998 14.0002 15.3384 14.5128C14.5963 16.0087 13.112 16.6364 11.4814 16.1447C10.7497 15.925 9.84033 15.0359 9.56856 14.2722C9.15045 13.0692 9.42222 11.8871 10.3316 10.9666C10.6975 10.6005 11.0842 10.318 11.3769 10.2134C11.9936 10.0042 12.997 9.99373 13.6033 10.203Z" fill="white"/>
<path d="M0.244762 12.7031C-0.0688192 13.0169 -0.0792719 13.268 0.202951 13.6341L0.412005 13.9061H2.7116C4.86485 13.9061 5.01119 13.8956 5.20979 13.6969C5.32477 13.5818 5.41884 13.3517 5.41884 13.1738C5.41884 12.996 5.32477 12.7659 5.20979 12.6508C5.01119 12.452 4.86485 12.4416 2.75341 12.4416C0.495626 12.4416 0.495626 12.4416 0.244762 12.7031Z" fill="white"/>
<path d="M19.4986 12.5671C19.2059 12.7972 19.1641 13.2889 19.4254 13.6237L19.645 13.9061H22.1327C24.495 13.9061 24.6309 13.8956 24.8086 13.6969C25.0804 13.3935 25.0594 12.8705 24.7668 12.6299C24.5473 12.4625 24.2964 12.4416 22.1013 12.4416C20.3244 12.4416 19.624 12.473 19.4986 12.5671Z" fill="white"/>
<path d="M17.4708 17.7766C17.2095 17.8812 17.0213 18.1846 17.0213 18.5193C17.0213 18.7704 20.0108 21.8773 20.5125 22.1388C21.1397 22.4631 21.7564 21.8563 21.4742 21.1973C21.2756 20.7475 18.2966 17.808 17.9621 17.7348C17.8157 17.7034 17.5962 17.7243 17.4708 17.7766Z" fill="white"/>
<path d="M6.18189 18.4984C5.22024 19.3039 3.66279 20.9358 3.54781 21.2496C3.40147 21.6471 3.54781 22.0028 3.93456 22.1597C4.37357 22.348 4.53036 22.2434 5.94148 20.8207C7.84387 18.9064 7.94839 18.7286 7.45712 18.2474C7.09127 17.8708 6.86131 17.9231 6.18189 18.4984Z" fill="white"/>
<path d="M12.004 20.4964C11.8054 20.6952 11.795 20.8416 11.795 22.9861C11.795 25.1515 11.8054 25.2875 12.004 25.4653C12.3072 25.7373 12.8298 25.7164 13.0702 25.4235C13.2375 25.2038 13.2584 24.9632 13.2584 22.9443C13.2584 20.8416 13.2479 20.6952 13.0493 20.4964C12.9343 20.3814 12.7044 20.2872 12.5267 20.2872C12.349 20.2872 12.119 20.3814 12.004 20.4964Z" fill="white"/>
</svg>
