<svg width="32" height="32" viewBox="0 0 32 32" fill="none" xmlns="http://www.w3.org/2000/svg">
<path d="M13.938 15.9992L19.3688 21.43C19.5534 21.6146 19.6478 21.8467 19.6521 22.1262C19.6564 22.4056 19.5619 22.6419 19.3688 22.8351C19.1756 23.0283 18.9414 23.1249 18.6662 23.1249C18.391 23.1249 18.1569 23.0283 17.9637 22.8351L11.9714 16.8428C11.8466 16.718 11.7586 16.5864 11.7073 16.4479C11.656 16.3095 11.6304 16.1599 11.6304 15.9992C11.6304 15.8385 11.656 15.689 11.7073 15.5505C11.7586 15.4121 11.8466 15.2804 11.9714 15.1557L17.9637 9.16336C18.1483 8.97873 18.3803 8.88429 18.6598 8.88002C18.9393 8.87573 19.1756 8.97018 19.3688 9.16336C19.5619 9.35651 19.6585 9.59069 19.6585 9.86589C19.6585 10.1411 19.5619 10.3753 19.3688 10.5684L13.938 15.9992Z" fill="white" fill-opacity="0.64"/>
</svg>
